<svg version="1.1" id="Layer_1" xmlns="http://www.w3.org/2000/svg" xmlns:xlink="http://www.w3.org/1999/xlink" x="0px" y="0px"
	 width="100%" viewBox="0 0 1024 1024" enable-background="new 0 0 1024 1024" xml:space="preserve">
<path fill="#e6b325" opacity="1.000000" stroke="none" 
	d="
M531.026978,793.213379 
	C523.902954,792.761902 517.305298,790.144409 510.517487,793.150513 
	C508.247040,794.156006 506.076355,792.298889 504.291382,790.723999 
	C499.668335,786.645081 495.036041,782.575928 490.464233,778.440063 
	C488.371307,776.546631 486.447174,774.691589 483.475616,773.917297 
	C480.059204,773.027100 478.902252,769.762207 478.017487,766.665955 
	C475.547485,758.021912 473.168518,749.351929 470.714386,740.703308 
	C470.138245,738.672913 469.975647,736.472290 468.093475,734.064819 
	C466.603180,744.001648 461.829346,752.089478 458.213715,760.631287 
	C456.985382,763.533142 455.370087,766.276245 453.857849,769.051697 
	C451.422241,773.521667 447.556519,775.754883 442.535461,776.130554 
	C433.901947,776.776367 425.278046,777.610229 416.633911,778.036682 
	C409.755646,778.376099 407.907288,776.748779 406.716309,769.973816 
	C406.314911,767.690491 404.613983,766.672791 403.197266,765.338501 
	C368.626404,732.780884 333.790710,700.502563 299.809540,667.323242 
	C297.905945,665.464539 296.100952,663.487000 294.419281,661.426758 
	C293.604584,660.428589 292.379517,658.767639 292.710632,657.991150 
	C295.159729,652.248169 290.313080,647.473328 290.974274,641.780457 
	C291.640961,636.040283 291.673981,630.158997 292.985504,624.516052 
	C299.727020,595.510437 306.560455,566.524414 314.617706,537.845886 
	C314.707764,537.525330 314.755859,537.192871 314.849152,536.873474 
	C318.544708,524.218567 320.727753,522.887085 333.408661,526.555359 
	C360.618500,534.426514 387.278503,543.963013 413.956726,553.437866 
	C415.629059,554.031860 417.193573,555.221802 419.470184,554.587769 
	C419.697083,550.909119 418.172211,547.518494 417.261536,544.076965 
	C410.151642,517.208679 402.724426,490.423645 396.353271,463.363281 
	C395.901337,461.443787 395.140198,459.577301 394.348419,457.762268 
	C393.183319,455.091431 393.243774,452.697235 395.098053,450.294647 
	C406.586517,435.408905 417.962860,420.436371 429.494690,405.584503 
	C443.083557,388.083405 457.251190,371.008057 470.246704,353.080383 
	C476.311127,344.714325 483.930969,341.501801 493.356354,340.878662 
	C521.935913,338.989075 550.543396,337.626007 579.170288,336.666779 
	C584.308472,336.494629 587.407471,337.453094 590.182678,343.193726 
	C593.546936,350.152771 600.167725,355.526459 605.326355,361.630981 
	C628.024414,388.490997 649.105286,416.648895 671.342224,443.876923 
	C675.741089,449.263184 676.005981,454.185577 674.629883,461.115662 
	C671.262451,478.073486 668.133667,495.089783 664.475952,511.998108 
	C661.521667,525.654846 658.479675,539.292664 655.505920,552.945251 
	C655.162537,554.521484 655.006897,556.138733 654.684204,558.264343 
	C667.839661,552.471741 680.423340,546.841003 693.080688,541.381104 
	C708.068542,534.915894 723.112488,528.580261 738.152344,522.236328 
	C740.294128,521.332886 742.497070,520.409485 744.763000,519.998779 
	C749.861572,519.074463 753.823792,523.063049 752.480347,528.020996 
	C751.785156,530.586609 752.439575,532.554871 753.306519,534.706299 
	C764.955505,563.616211 773.976257,593.425110 783.570740,623.039429 
	C785.888123,630.192078 785.191223,635.347595 779.449280,641.744141 
	C770.464355,651.753357 761.310120,661.654846 752.323669,671.682678 
	C730.528625,696.003235 708.187012,719.820740 685.552917,743.362061 
	C677.816040,751.409119 669.984131,759.364807 662.216919,767.382812 
	C661.412903,768.212891 660.481262,769.077454 660.078125,770.109375 
	C658.560059,773.995483 655.570801,775.213562 651.739624,775.078491 
	C643.584412,774.791016 635.426147,774.556458 627.276855,774.146912 
	C623.123047,773.938110 619.754883,772.312439 617.072754,768.780701 
	C614.521362,765.421204 611.917297,761.907532 608.227844,759.710449 
	C606.250061,760.819458 606.281921,762.651184 605.856506,764.189636 
	C604.663330,768.504517 602.948303,772.084595 597.500916,771.658203 
	C595.859253,771.529663 594.810059,772.876221 593.654541,773.780884 
	C586.703857,779.223083 579.779175,784.698792 572.873230,790.197815 
	C571.970276,790.916809 571.099243,791.742676 570.426453,792.673157 
	C565.692810,799.219666 565.752441,799.060242 557.623413,797.084412 
	C549.044556,794.999207 540.242249,794.203308 531.026978,793.213379 
M505.499573,485.297394 
	C492.411102,485.297394 479.322632,485.297394 466.008759,485.297394 
	C466.117676,486.474060 466.126099,487.959381 466.406586,489.391388 
	C474.777100,532.129578 483.119415,574.873413 491.581696,617.593506 
	C502.110107,670.744202 513.001709,723.824707 522.402710,777.191711 
	C523.164612,781.516846 525.086243,783.331238 529.495178,783.675110 
	C537.446533,784.295410 545.364502,785.404053 553.273682,786.476685 
	C556.667358,786.937012 558.435242,786.349304 558.842957,782.350830 
	C560.730652,763.836304 562.811951,745.339355 565.038269,726.862000 
	C568.139343,701.125122 571.429016,675.410889 574.642334,649.687500 
	C577.752380,624.790222 580.665955,599.866150 584.035156,575.003967 
	C587.783386,547.344971 590.754761,519.574280 595.634644,492.074127 
	C596.395935,487.783997 595.001831,486.195160 590.423157,486.171967 
	C562.447937,486.030334 534.473999,485.620636 505.499573,485.297394 
M579.345276,722.689331 
	C576.956177,741.221680 574.567078,759.754028 572.177979,778.286316 
	C578.796082,773.862976 584.288086,768.859741 589.967651,764.079285 
	C592.765991,761.723877 594.461304,759.056580 595.277283,755.413330 
	C602.653931,722.478271 610.054993,689.547546 617.704956,656.675110 
	C632.138428,594.653320 645.461731,532.362854 662.381958,470.938446 
	C662.677490,469.865448 663.247070,468.723114 662.137146,467.399689 
	C645.781433,471.369080 629.261047,475.168030 612.889832,479.527313 
	C609.576660,480.409546 606.731506,483.417694 606.354553,487.457550 
	C605.582092,495.736694 605.115967,504.046661 604.231140,512.312622 
	C601.895264,534.135559 599.477905,555.950500 596.953186,577.752380 
	C594.142090,602.026978 591.223022,626.289490 588.265259,650.546753 
	C585.368591,674.302490 582.364136,698.045227 579.345276,722.689331 
M451.165131,618.520752 
	C463.715302,664.598999 476.762543,710.551392 488.482727,756.839783 
	C491.598053,769.143555 501.365601,772.924133 509.027405,779.914368 
	C489.950104,679.774719 470.347168,579.990601 451.242706,479.224030 
	C438.070526,474.967865 423.615723,470.297272 408.730255,465.487518 
	C422.944183,516.759155 436.941254,567.248596 451.165131,618.520752 
M488.516174,472.906433 
	C521.489685,472.844574 554.463196,472.787720 587.436707,472.716949 
	C594.696411,472.701385 594.797058,472.636017 591.890137,465.776367 
	C580.850159,439.725037 569.700623,413.720032 558.714600,387.646088 
	C557.617432,385.042206 556.149109,384.129822 553.452148,384.254486 
	C544.146179,384.684692 534.815552,385.480408 525.530273,385.143921 
	C519.489319,384.925018 516.466919,387.517609 513.981628,392.379913 
	C507.314606,405.423920 500.496796,418.392456 493.603516,431.318817 
	C486.186279,445.227692 478.615112,459.054443 471.110626,472.917938 
	C476.674377,472.917938 482.099884,472.917938 488.516174,472.906433 
M394.135071,613.710632 
	C377.887085,623.229126 361.880371,633.182556 343.837891,640.203064 
	C377.953735,680.901978 412.152130,719.868713 443.770782,761.084900 
	C447.224182,756.076721 447.365295,755.193481 445.983948,750.858765 
	C431.944305,706.803162 418.567810,662.549683 406.424194,617.930054 
	C405.490814,614.500488 404.769379,611.013184 403.816254,606.990662 
	C400.421783,609.350647 397.579193,611.326904 394.135071,613.710632 
M461.112396,465.323517 
	C463.048309,464.489319 463.328949,462.484528 464.092010,460.897217 
	C474.339935,439.580872 485.549652,418.756989 496.291046,397.693787 
	C504.842468,380.925079 505.776581,387.242065 493.205597,372.719696 
	C489.004425,367.866455 484.635040,363.158783 479.908264,357.901520 
	C455.990234,388.670013 432.589813,418.772644 408.652618,449.565796 
	C426.732819,455.079559 443.571808,460.214813 461.112396,465.323517 
M626.596802,462.921753 
	C638.208313,459.817200 649.819824,456.712646 662.257690,453.387146 
	C636.580078,420.232605 610.428650,389.082520 586.049683,355.636658 
	C579.456421,363.344025 573.543884,370.274689 567.603943,377.181793 
	C566.540894,378.417877 566.773865,379.426025 567.613464,380.729645 
	C572.594299,388.463379 575.664673,397.130707 579.435730,405.448273 
	C588.157104,424.684784 596.735352,443.986603 605.271790,463.306030 
	C606.741821,466.632904 608.335876,468.548523 612.414978,467.056213 
	C616.775024,465.461060 621.341614,464.430603 626.596802,462.921753 
M667.002075,703.526917 
	C686.870911,679.210510 706.739685,654.894165 727.038086,630.052002 
	C708.026794,618.220154 687.132812,611.948242 667.729675,599.836121 
	C657.569458,647.696472 645.789978,694.189148 634.211792,740.730164 
	C634.706360,740.988953 635.200989,741.247742 635.695557,741.506531 
	C645.976013,729.024414 656.256409,716.542358 667.002075,703.526917 
M729.590942,646.063782 
	C697.660095,684.745850 665.729187,723.427917 633.383484,762.612488 
	C638.310852,764.406006 642.843689,763.243713 647.180725,763.827393 
	C650.703003,764.301453 653.004089,762.954041 655.297302,760.271362 
	C665.027710,748.888550 674.820129,737.547974 684.920593,726.494263 
	C710.180176,698.850647 735.629333,671.380371 760.958801,643.800537 
	C762.216736,642.430847 764.202759,641.371826 763.999451,638.780762 
	C756.885864,637.047119 749.813416,635.298218 742.725403,633.614868 
	C741.073669,633.222595 739.323975,633.048950 738.351746,634.935242 
	C736.257385,638.998474 732.652100,641.862915 729.590942,646.063782 
M341.215332,689.287659 
	C348.257599,695.899048 355.339691,702.468506 362.334320,709.129944 
	C379.942017,725.898926 397.565613,742.651917 415.057831,759.540833 
	C419.834625,764.152832 424.723602,765.279419 431.200836,762.101379 
	C428.577301,759.222839 425.931244,756.529907 423.520355,753.640869 
	C405.166290,731.646179 386.659485,709.774353 368.609131,687.532532 
	C357.507599,673.853088 345.120270,661.143372 336.151001,645.798828 
	C335.442749,644.587158 334.434326,644.342224 333.175201,644.638672 
	C322.620361,647.123169 312.065399,649.606995 301.078308,652.192749 
	C315.007172,664.123657 327.820923,676.496155 341.215332,689.287659 
M428.420715,649.172791 
	C437.101593,677.651794 445.782471,706.130798 454.463379,734.609741 
	C457.379028,728.586487 459.017914,722.644897 461.251892,716.936096 
	C462.551819,713.614075 462.605255,710.648499 461.682648,707.286011 
	C451.552185,670.364380 441.572052,633.401489 431.393768,596.493103 
	C430.047119,591.609924 429.456635,586.408508 426.400269,581.305664 
	C420.603424,588.052734 416.623016,595.568787 411.188202,601.028931 
	C419.386505,616.377502 422.845276,632.740845 428.420715,649.172791 
M622.834839,693.204041 
	C619.283142,708.258911 615.724609,723.312195 612.182617,738.369324 
	C610.469727,745.651001 611.884033,748.428528 619.095398,751.979065 
	C620.872925,750.221252 620.949219,747.767212 621.471863,745.572021 
	C623.628296,736.514038 625.568970,727.404968 627.673218,718.334229 
	C636.317566,681.069946 644.396851,643.647827 655.067749,606.909607 
	C657.873779,597.248962 652.469421,591.918091 648.185669,585.095337 
	C639.813660,620.865601 631.441650,656.635864 622.834839,693.204041 
M730.400513,593.013184 
	C732.084167,577.880737 733.767822,562.748291 735.555908,546.677429 
	C714.610657,561.852112 694.276672,576.583984 672.940613,592.041809 
	C691.696167,600.226135 709.266907,607.893433 727.195007,615.716675 
	C729.235596,608.113892 729.098389,600.915222 730.400513,593.013184 
M352.108612,567.428284 
	C345.916412,563.065002 339.724243,558.701782 333.086639,554.024658 
	C332.735107,555.510498 332.400848,556.138916 332.477600,556.712402 
	C335.342468,578.117126 338.334076,599.505493 341.074829,620.925903 
	C341.689484,625.729919 343.487213,625.973267 347.208740,623.842285 
	C360.061798,616.482178 373.026794,609.317444 385.866394,601.934326 
	C388.235168,600.572144 390.937164,599.360779 392.390564,596.228149 
	C379.134918,586.764771 365.904633,577.319519 352.108612,567.428284 
M542.581543,375.957092 
	C544.742249,375.927124 546.915955,376.034546 549.060303,375.831818 
	C551.643677,375.587616 554.832886,376.750275 556.674438,374.482788 
	C563.212524,366.432770 569.454529,358.142151 576.433350,349.136627 
	C548.269104,349.258606 521.219177,351.756531 494.057739,351.351990 
	C494.104492,352.413483 493.994385,352.820038 494.149902,353.024902 
	C500.496124,361.384949 508.190521,368.535095 515.127869,376.366119 
	C516.265625,377.650482 517.700073,377.516693 519.255249,377.403717 
	C526.705078,376.862701 534.163147,376.434204 542.581543,375.957092 
M311.723938,599.045410 
	C308.957764,612.101685 304.539795,624.805664 302.625763,638.608826 
	C311.217987,636.978699 319.007080,635.424194 326.828217,634.052185 
	C330.316956,633.440186 330.818756,631.795837 330.225128,628.444275 
	C328.141571,616.680176 326.417175,604.851257 324.643066,593.033936 
	C323.145386,583.058289 323.000366,572.900696 320.682037,562.044312 
	C317.622406,574.745422 314.791046,586.498840 311.723938,599.045410 
M744.003357,563.329590 
	C743.235840,570.433899 742.474487,577.538818 741.699280,584.642273 
	C740.581909,594.880066 739.577148,605.132263 738.275085,615.346558 
	C737.700806,619.851807 738.943420,622.018494 743.781189,622.486877 
	C749.052612,622.997131 754.226807,624.447388 759.473633,625.302856 
	C762.007507,625.715881 764.515930,626.929077 768.103882,625.956116 
	C760.203735,602.439636 752.271606,579.250671 744.466980,555.993286 
	C744.345093,558.147522 744.223206,560.301697 744.003357,563.329590 
M364.872986,560.601807 
	C366.479187,561.782898 368.135132,562.902527 369.683502,564.155029 
	C379.393219,572.009583 389.376587,579.498108 399.699005,586.526001 
	C401.247162,587.580078 403.203369,589.444397 404.955261,587.195923 
	C409.405457,581.484558 413.462677,575.491882 416.962097,568.337463 
	C389.821564,559.782593 363.754303,550.193970 336.270905,540.267639 
	C346.428467,547.489319 355.357758,553.837769 364.872986,560.601807 
M672.529541,579.997437 
	C686.949341,569.132874 701.369141,558.268311 715.788940,547.403748 
	C694.905273,554.349731 674.810791,562.963562 653.460083,569.798035 
	C656.929260,575.589722 660.115295,580.908752 663.643555,586.799194 
	C666.764771,584.425964 669.375305,582.440979 672.529541,579.997437 
z"/>
<path fill="#e6b325" opacity="1.000000" stroke="none" 
	d="
M614.770996,829.953735 
	C632.705322,830.868103 650.161865,831.816162 667.624207,832.642883 
	C683.758179,833.406799 699.900269,833.997131 716.034668,834.752930 
	C722.627258,835.061707 726.598450,838.610779 726.520142,843.809143 
	C726.442261,848.983276 722.354248,852.474976 715.630676,852.216492 
	C688.833801,851.186096 662.044617,849.953491 635.254150,848.760864 
	C617.949219,847.990540 600.646545,847.168030 583.343628,846.354065 
	C541.583862,844.389465 499.827484,842.350769 458.063843,840.473755 
	C436.601532,839.509033 415.144409,838.549072 393.767273,836.306946 
	C389.792816,835.890076 385.795990,835.507019 382.011444,834.163147 
	C379.158051,833.149963 376.948059,831.269287 377.266937,827.925293 
	C377.562531,824.825928 379.961029,823.477722 382.705750,822.819824 
	C386.616364,821.882629 390.608765,821.723694 394.620758,821.711670 
	C425.117004,821.620483 455.562012,823.102539 486.010773,824.554443 
	C503.642181,825.395264 521.286255,825.966003 538.922729,826.705566 
	C564.048035,827.759094 589.171509,828.856079 614.770996,829.953735 
z"/>
<path fill="#e6b325" opacity="1.000000" stroke="none" 
	d="
M844.021362,505.992554 
	C828.490601,491.019287 832.519287,464.450165 843.653748,451.797638 
	C849.143188,445.559875 855.977112,444.155457 861.661194,447.858307 
	C861.680969,449.595154 860.332886,449.998718 859.059875,450.292816 
	C853.429382,451.593445 850.326233,455.503662 848.430847,460.589630 
	C845.779785,467.702789 844.498840,475.003723 845.806519,482.603516 
	C847.502808,492.461578 853.005798,499.036316 862.842407,501.241058 
	C873.246338,503.573029 882.498169,501.024506 889.345276,492.586578 
	C894.008850,486.839447 897.427734,480.345612 896.031860,472.436707 
	C895.270935,468.125641 893.777344,463.970764 888.888550,463.332611 
	C884.109314,462.708771 881.503418,466.432281 879.188049,469.980957 
	C878.383850,471.213593 877.594727,472.535980 878.050781,474.403076 
	C881.276672,475.594025 883.648926,473.467834 886.186279,472.093170 
	C887.595276,471.329773 888.865784,469.642059 890.622192,470.896515 
	C892.253723,472.061798 892.346497,474.028320 892.283630,475.896576 
	C892.078430,481.997437 884.632141,488.088959 876.969666,488.441132 
	C869.637634,488.778137 863.499878,483.976257 862.709717,477.285065 
	C861.179626,464.326691 874.987793,448.748962 887.952881,448.806824 
	C898.146729,448.852325 907.715332,458.579895 909.244629,470.452362 
	C911.234314,485.899170 902.212158,503.149506 888.022339,511.029388 
	C873.893982,518.875122 857.275940,517.056213 844.021362,505.992554 
z"/>
<path fill="#e6b325" opacity="1.000000" stroke="none" 
	d="
M287.727600,388.538086 
	C269.376526,381.562622 261.835022,367.029449 258.743835,349.334656 
	C257.381592,341.537048 257.629608,333.720215 260.052887,326.120544 
	C262.133728,319.594757 266.092072,314.670502 272.822388,312.413727 
	C274.916931,311.711365 276.976624,311.291840 278.994141,314.333923 
	C272.774658,316.944489 268.631470,321.312042 267.866547,327.939972 
	C266.067749,343.526703 269.305267,357.926331 279.841431,369.827026 
	C286.144653,376.946625 294.788696,379.807037 304.304138,378.612000 
	C311.556580,377.701172 315.686584,372.951660 317.711395,365.309692 
	C311.184082,373.335449 303.340637,376.507629 293.832764,374.195648 
	C285.561340,372.184387 281.277100,365.171295 282.693726,356.753265 
	C284.555939,345.687683 298.185364,333.998230 309.402344,333.846252 
	C320.884430,333.690704 329.863647,343.620728 330.204346,357.500458 
	C330.833527,383.130615 311.473572,397.026764 287.727600,388.538086 
M299.320160,360.843262 
	C307.691895,361.471436 312.446167,356.717285 315.923859,349.955719 
	C314.386353,347.702026 312.482605,346.480347 309.953339,346.567352 
	C305.478241,346.721252 297.879333,353.575928 297.108246,357.991943 
	C296.867584,359.370117 297.271301,360.259064 299.320160,360.843262 
z"/>
<path fill="#e6b325" opacity="1.000000" stroke="none" 
	d="
M262.738403,824.165466 
	C249.037506,827.354980 237.900543,819.291626 235.731003,805.002075 
	C233.734573,791.852722 238.513855,780.446228 248.405991,774.751648 
	C259.703064,768.248108 274.500824,769.685242 284.894287,778.295166 
	C304.539307,794.568970 305.334534,820.592163 286.723267,838.147156 
	C277.695251,846.662842 262.635742,848.592834 251.834213,842.582520 
	C250.827393,842.022339 249.858093,841.328552 249.027679,840.533569 
	C247.866669,839.422058 247.271317,837.977966 248.181595,836.480652 
	C249.019440,835.102539 250.513550,835.332092 251.797546,835.667114 
	C255.827209,836.718689 259.830231,837.828857 264.058594,837.726624 
	C274.371460,837.477112 281.790100,832.554077 286.492645,823.561462 
	C291.302948,814.362854 293.047607,805.064941 286.592072,795.732483 
	C280.784912,787.337402 273.713226,781.272949 262.675903,782.252808 
	C256.852722,782.769775 251.813522,784.959595 249.496552,790.653870 
	C247.078857,796.595642 247.038864,802.762878 250.512741,808.418396 
	C252.849228,812.222290 257.476746,812.969727 261.528412,810.519043 
	C263.831818,809.125732 265.796143,807.285889 267.215088,804.988831 
	C268.147705,803.478943 269.480530,801.817810 267.862854,800.003967 
	C266.452271,798.422546 264.739410,798.345581 262.896545,799.408752 
	C262.209534,799.805115 261.373535,799.943359 260.639435,800.188049 
	C257.964508,795.299805 260.543121,790.412354 266.012634,789.638855 
	C275.818512,788.252075 283.353149,796.989624 280.241913,806.393738 
	C277.409027,814.956543 271.612518,820.860229 262.738403,824.165466 
z"/>
<path fill="#e6b325" opacity="1.000000" stroke="none" 
	d="
M538.575562,190.358948 
	C536.919128,173.020248 535.244995,156.143600 533.712524,139.254105 
	C533.186890,133.460770 532.953369,127.637962 532.704529,121.823578 
	C532.550659,118.226891 533.435303,114.772400 537.556213,114.269730 
	C542.054871,113.720978 543.637146,117.248505 544.144287,120.885399 
	C545.979980,134.049133 547.745789,147.226181 549.265930,160.429504 
	C551.546875,180.241013 553.690796,200.069489 555.720581,219.908386 
	C557.666382,238.926514 559.464844,257.960663 561.169128,277.002014 
	C561.654724,282.427765 559.021484,285.939636 554.952576,286.182587 
	C551.321777,286.399384 548.471497,283.483459 547.833313,278.615784 
	C544.006592,249.428802 541.144226,220.139557 538.575562,190.358948 
z"/>
<path fill="#e6b325" opacity="1.000000" stroke="none" 
	d="
M341.461914,284.488586 
	C327.945129,263.640625 314.742920,243.020844 302.162354,222.011536 
	C300.368195,219.015396 298.740906,215.908142 297.216003,212.765182 
	C295.675293,209.589615 295.871368,206.367615 298.851837,204.236389 
	C302.186432,201.851944 305.294647,203.310379 307.654388,206.105530 
	C313.471313,212.995697 318.226227,220.659317 323.097229,228.209808 
	C344.226868,260.962646 364.921326,293.990234 385.099274,327.339325 
	C386.129944,329.042816 387.174713,330.787933 387.848450,332.645813 
	C388.919617,335.599762 388.266693,338.289124 385.593933,340.157288 
	C382.822998,342.094086 380.141418,341.414703 377.895172,339.247253 
	C376.475922,337.877838 375.299255,336.213348 374.209717,334.552673 
	C363.336639,317.980530 352.504364,301.381592 341.461914,284.488586 
z"/>
<path fill="#e6b325" opacity="1.000000" stroke="none" 
	d="
M745.697021,236.652756 
	C728.272705,263.508911 711.185974,290.154846 693.073364,316.120911 
	C690.788574,319.396362 688.583496,322.757446 685.537292,325.412537 
	C683.652832,327.055054 681.590027,327.878479 679.158508,326.441559 
	C676.590515,324.923981 675.906738,322.519897 676.770874,319.980438 
	C677.726685,317.171204 679.064697,314.434631 680.606445,311.890808 
	C704.702209,272.133667 730.606567,233.542923 756.268372,194.796524 
	C757.177795,193.423370 758.253784,192.065567 759.530518,191.050888 
	C761.996765,189.090942 764.843445,188.938568 767.411072,190.746185 
	C769.975220,192.551331 770.907349,195.222778 769.711792,198.238037 
	C768.981506,200.079636 767.966431,201.833527 766.899109,203.512222 
	C759.927734,214.477249 752.907043,225.410934 745.697021,236.652756 
z"/>
<path fill="#e6b325" opacity="1.000000" stroke="none" 
	d="
M283.131744,449.340332 
	C282.242584,455.479004 279.561218,457.188354 274.254395,455.350525 
	C268.694000,453.424835 263.903931,450.020996 258.905884,447.062988 
	C224.385269,426.632294 190.217468,405.630005 156.832657,383.378510 
	C154.493591,381.819519 152.289322,379.987427 150.286819,378.014008 
	C148.243271,376.000031 147.408768,373.447449 149.095139,370.761444 
	C150.777893,368.081177 153.358994,367.779663 156.134964,368.673035 
	C160.762634,370.162354 164.959015,372.605408 169.097977,375.059723 
	C204.603683,396.113983 239.806274,417.660675 274.251801,440.420227 
	C277.687653,442.690430 281.428284,444.767456 283.131744,449.340332 
z"/>
<path fill="#e6b325" opacity="1.000000" stroke="none" 
	d="
M804.360718,824.885681 
	C807.747131,815.265869 814.604797,810.187378 824.023071,809.960999 
	C833.915894,809.723328 842.332520,814.010254 847.298889,822.919128 
	C852.053955,831.449036 850.102722,839.530151 844.245361,847.054688 
	C835.407532,858.408081 811.889648,866.077026 796.705933,853.061462 
	C779.101318,837.970764 782.644653,805.579834 803.169556,796.869080 
	C806.189209,795.587524 809.516357,793.708862 812.864990,796.499207 
	C812.430420,799.315918 810.067078,799.980652 808.286377,800.896179 
	C796.748901,806.828491 792.713440,826.972412 801.373596,838.882507 
	C808.974670,849.336121 829.520935,847.961853 835.766052,836.554016 
	C838.296204,831.932312 836.760498,827.789368 831.512268,825.078369 
	C825.894409,822.176392 820.146484,823.397949 818.039673,827.903137 
	C817.597351,828.848755 817.167114,829.778442 817.862793,830.698669 
	C818.565979,831.628906 819.564270,831.527771 820.584961,831.204285 
	C821.828979,830.810120 823.033691,830.056946 824.683228,830.747620 
	C826.168640,833.925842 824.453003,836.419495 822.291870,838.507202 
	C819.285706,841.411133 815.560608,842.034973 811.620178,840.687988 
	C805.351318,838.545288 802.876282,833.306885 804.360718,824.885681 
z"/>
<path fill="#e6b325" opacity="1.000000" stroke="none" 
	d="
M653.824463,205.737213 
	C655.653381,200.117691 656.015076,194.892670 653.278809,189.879059 
	C650.550659,184.880234 647.441406,184.320038 643.342102,188.154129 
	C639.672058,191.586685 636.879578,195.585159 636.305969,200.475250 
	C638.292725,202.565979 640.677856,200.612411 642.514038,202.263275 
	C642.214966,206.055054 639.524353,207.918106 636.411438,209.177368 
	C633.181152,210.484131 630.188171,209.618423 627.650146,207.274948 
	C625.301880,205.106613 624.347900,202.272079 624.239685,199.198196 
	C623.886169,189.157013 634.060486,176.100723 643.822937,173.944122 
	C654.534241,171.577896 665.085388,180.991028 666.250122,194.045486 
	C666.914185,201.487595 665.753784,208.626221 662.526245,215.433029 
	C656.415405,228.320602 643.979736,235.301483 630.886719,233.075974 
	C617.686768,230.832275 607.078247,219.268509 605.795166,205.503128 
	C605.139465,198.469543 605.661987,191.539581 608.514282,184.925064 
	C610.948853,179.279373 615.001526,175.244583 620.646362,172.978714 
	C624.382629,171.478943 628.070679,171.471695 630.758118,174.792572 
	C630.845337,176.030273 630.280823,176.387039 629.640564,176.591858 
	C619.706421,179.769226 616.362427,184.763306 616.362671,196.455444 
	C616.362915,207.774628 622.212158,216.959045 631.135315,219.651276 
	C641.113464,222.661804 649.116150,217.864456 653.824463,205.737213 
z"/>
<path fill="#e6b325" opacity="1.000000" stroke="none" 
	d="
M419.696930,225.306931 
	C415.227753,222.550278 410.713440,221.053513 405.933350,220.016754 
	C396.361267,217.940689 393.909882,212.116821 399.389740,203.984909 
	C407.055206,192.609558 411.633759,180.063217 414.605927,166.809479 
	C416.088684,160.197403 420.408112,158.792252 425.231750,163.525574 
	C427.347900,165.602097 429.129578,168.092484 430.730225,170.606857 
	C434.707275,176.854309 439.219696,182.448364 445.739136,186.334229 
	C450.025208,188.888901 451.240265,192.665695 448.587891,196.538956 
	C440.814056,207.890961 441.872833,219.712677 445.761108,231.872192 
	C446.014435,232.664444 446.214142,233.474396 446.482697,234.261124 
	C447.678741,237.765167 446.652435,240.548050 443.530182,242.378159 
	C440.244873,244.303864 437.376251,243.106003 435.079437,240.503967 
	C433.211029,238.387268 431.595917,236.046188 429.880219,233.795670 
	C427.208862,230.291611 423.806641,227.659317 419.696930,225.306931 
M430.894592,207.610184 
	C431.719177,204.068970 432.192474,200.420792 434.006989,197.177872 
	C434.777496,195.800827 434.568726,194.643036 433.318481,193.689270 
	C429.377045,190.682465 426.400085,186.697769 422.448364,182.509048 
	C420.340912,191.633698 415.780243,199.069916 412.186401,207.347321 
	C418.571594,209.121918 423.639557,212.244843 428.866882,214.501404 
	C430.790100,212.435791 430.534576,210.359253 430.894592,207.610184 
z"/>
<path fill="#e6b325" opacity="1.000000" stroke="none" 
	d="
M224.262436,707.509521 
	C220.632828,708.677979 218.671005,706.741455 216.594528,704.648804 
	C208.138367,696.126709 197.775162,692.616150 185.908539,693.528931 
	C180.721848,693.927917 177.335434,690.962097 177.783295,685.442810 
	C178.130661,681.162170 178.934448,676.883057 179.933502,672.698364 
	C181.899475,664.463501 182.096512,656.272644 180.211685,648.018677 
	C179.419693,644.550476 179.581604,641.112000 183.044632,639.249878 
	C186.347122,637.474060 189.684357,638.578186 192.194305,641.099182 
	C199.597488,648.534912 207.853104,654.309753 218.255890,656.927246 
	C222.900055,658.095825 224.527969,662.311340 222.903854,666.497375 
	C218.765411,677.164124 221.179840,686.566711 226.881592,695.846130 
	C229.942291,700.827271 228.986679,704.175720 224.262436,707.509521 
M194.978149,671.116272 
	C194.379974,673.678040 193.684921,676.230530 194.168411,679.247375 
	C198.650940,680.577698 203.159851,681.915833 208.256836,683.428528 
	C207.742889,678.701965 208.194138,674.789856 208.690979,670.876953 
	C208.884232,669.354980 208.804947,667.907166 207.091293,667.086548 
	C203.421539,665.328979 199.788605,663.494446 195.705826,661.476685 
	C195.498413,664.744934 195.321930,667.525696 194.978149,671.116272 
z"/>
<path fill="#e6b325" opacity="1.000000" stroke="none" 
	d="
M888.028320,710.931885 
	C892.043518,715.190063 892.548584,718.284119 888.677979,720.752258 
	C878.053345,727.526978 879.867615,737.656494 880.588867,747.602844 
	C880.720337,749.416077 881.257996,751.196716 881.540833,753.002869 
	C881.967041,755.724731 881.394592,758.126282 878.549255,759.125916 
	C875.634094,760.150146 873.360901,758.973816 871.744690,756.412292 
	C869.256165,752.468201 866.856384,748.462891 864.230347,744.612183 
	C861.406860,740.471985 858.089172,736.739624 854.204773,733.526672 
	C850.742737,730.662964 846.960938,728.837158 842.319580,729.282715 
	C839.339050,729.568909 836.458618,729.197021 835.132812,726.070801 
	C833.881104,723.119324 835.178467,720.534668 837.114136,718.275146 
	C843.298401,711.055969 849.573792,703.900940 853.037781,694.838135 
	C853.808838,692.820679 854.554688,690.791443 855.234619,688.741943 
	C856.082764,686.185242 857.529846,684.190613 860.372009,683.941956 
	C863.170593,683.697083 865.119507,685.314819 866.425476,687.618164 
	C867.573364,689.642761 868.522583,691.781128 869.534424,693.881348 
	C873.386047,701.876221 879.296265,707.647766 888.028320,710.931885 
M871.203918,715.336243 
	C867.824097,712.197998 864.444275,709.059814 860.797058,705.673340 
	C857.765442,710.487366 854.825317,715.156128 851.603271,720.272522 
	C859.028687,722.768066 863.601929,728.371643 869.212219,733.613098 
	C870.039795,728.496155 870.670959,724.211243 872.945007,720.467712 
	C874.197021,718.406677 873.349304,717.037659 871.203918,715.336243 
z"/>
<path fill="#e6b325" opacity="1.000000" stroke="none" 
	d="
M795.190063,428.246277 
	C815.085754,415.055511 836.089600,404.531769 856.604370,393.158905 
	C873.922974,383.557922 891.410461,374.261597 908.826172,364.835785 
	C910.428467,363.968536 911.954712,362.912384 913.857605,362.758698 
	C916.591980,362.537872 918.794617,363.416870 920.120300,365.915894 
	C921.463623,368.448029 920.902527,370.795807 919.030640,372.793365 
	C918.137756,373.746185 917.042297,374.588531 915.891968,375.209137 
	C880.452393,394.329468 845.285828,413.962494 809.316650,432.089203 
	C806.348999,433.584747 803.270325,434.867432 800.207092,436.163574 
	C797.513794,437.303253 794.623108,438.282043 792.593323,435.223694 
	C790.593750,432.210876 792.940735,430.328094 795.190063,428.246277 
z"/>
<path fill="#e6b325" opacity="1.000000" stroke="none" 
	d="
M190.091476,515.329163 
	C199.706940,510.057861 201.581039,501.460297 195.011398,492.084686 
	C193.286255,496.202271 191.610565,500.058838 187.710602,502.316406 
	C182.450150,505.361450 177.111420,505.433380 173.248657,502.208313 
	C169.315750,498.924622 168.223495,493.666443 170.310440,488.063324 
	C174.201950,477.615234 183.948334,473.425110 194.136871,477.819946 
	C205.975082,482.926453 212.511353,496.800751 208.982895,509.333221 
	C205.600449,521.347168 192.856567,529.567871 179.972672,528.046997 
	C160.006989,525.690002 149.357056,508.571808 157.124466,491.125061 
	C158.482803,488.074005 159.883820,484.679962 164.197311,483.953033 
	C165.615738,487.658752 163.313934,490.559875 162.707199,493.631653 
	C160.603180,504.283905 166.028793,513.525940 176.484421,516.222351 
	C180.914398,517.364746 185.394852,517.123657 190.091476,515.329163 
M184.920441,492.219086 
	C186.274979,491.143646 188.190216,490.762939 189.139206,488.748535 
	C186.498734,486.630066 184.644745,488.081696 183.094131,490.068695 
	C182.041473,491.417633 182.248825,492.539825 184.920441,492.219086 
z"/>
<path fill="#e6b325" opacity="1.000000" stroke="none" 
	d="
M776.297241,320.730164 
	C772.976562,317.839600 773.067810,314.681610 774.669556,311.420746 
	C775.694458,309.334229 776.892517,307.315186 778.185242,305.381012 
	C782.711243,298.609314 785.260803,291.514435 782.832886,283.233948 
	C781.469421,278.583618 784.418884,275.580322 787.797607,273.270508 
	C790.888123,271.157745 795.282349,272.812927 795.886108,276.978455 
	C797.597351,288.784851 807.101196,293.131958 815.451538,298.597656 
	C819.776794,301.428711 820.712830,305.660645 816.652588,308.712677 
	C810.104309,313.634827 810.519287,320.092865 812.209167,326.718536 
	C813.187134,330.552887 814.072266,334.051361 810.067688,336.404449 
	C806.024048,338.780457 803.199036,336.219482 800.517639,333.483459 
	C798.186768,331.105164 795.812134,328.763000 793.351868,326.519897 
	C789.715027,323.203949 785.963684,320.246338 780.427246,321.841858 
	C779.335449,322.156433 777.902161,321.286163 776.297241,320.730164 
M796.470520,312.637482 
	C798.089661,313.700806 799.366760,314.604919 800.638794,311.887299 
	C803.516968,305.738068 802.501404,303.337219 794.709961,299.742737 
	C792.569275,302.492279 791.736633,305.789368 790.663391,309.241241 
	C792.516541,310.315277 794.212280,311.298035 796.470520,312.637482 
z"/>
<path fill="#e6b325" opacity="1.000000" stroke="none" 
	d="
M876.018921,588.251587 
	C862.816895,589.415344 850.073486,590.578125 837.325500,591.688232 
	C835.349731,591.860229 833.321838,592.030518 831.373169,591.777405 
	C828.401184,591.391235 825.838440,590.161255 825.611755,586.635803 
	C825.391663,583.215515 827.405701,581.269531 830.478027,580.683777 
	C836.181946,579.596130 841.916687,578.559753 847.685791,577.942383 
	C875.935364,574.919189 904.198792,572.024170 932.461914,569.128296 
	C937.279175,568.634766 940.867249,570.846191 941.384094,574.378296 
	C941.983398,578.474243 939.357422,581.310425 933.475952,582.031677 
	C920.774658,583.589233 908.040161,584.877075 895.317200,586.256348 
	C889.039185,586.936951 882.756592,587.575745 876.018921,588.251587 
z"/>
<path fill="#e6b325" opacity="1.000000" stroke="none" 
	d="
M214.090057,596.265503 
	C189.370926,597.991577 165.102814,598.750977 140.804626,598.276123 
	C137.663589,598.214722 134.512848,597.790710 131.401718,597.308228 
	C128.459732,596.851929 125.823624,595.706055 125.636711,592.163513 
	C125.446365,588.555908 127.969566,587.191589 130.932587,586.657288 
	C135.177032,585.892029 139.453369,585.106506 143.747437,584.845581 
	C173.502823,583.036926 203.290085,583.829590 233.068542,583.943237 
	C233.732727,583.945801 234.403915,583.971436 235.059494,584.069092 
	C238.224991,584.540771 241.117310,585.588928 241.200882,589.372986 
	C241.289413,593.380615 238.391022,594.883240 234.990524,595.145630 
	C228.195358,595.670105 221.377640,595.902771 214.090057,596.265503 
z"/>
<path fill="#e6b325" opacity="1.000000" stroke="none" 
	d="
M729.934204,396.387085 
	C727.989319,394.290009 726.148865,392.550781 724.781799,390.496490 
	C721.151611,385.041473 722.767456,377.863037 728.229919,374.321625 
	C733.364380,370.992859 740.990112,372.904480 744.358093,378.364502 
	C748.270874,384.707794 747.893494,390.680328 743.056152,395.141663 
	C739.222656,398.677216 734.894348,399.385590 729.934204,396.387085 
z"/>
<path fill="#e6b325" opacity="1.000000" stroke="none" 
	d="
M321.686951,446.699982 
	C323.416260,445.632477 324.777222,444.570770 326.318329,444.104156 
	C331.471069,442.544006 338.375458,445.265198 340.671204,449.567169 
	C343.139099,454.191742 341.538574,460.084076 336.701569,464.181488 
	C332.400208,467.825104 325.510468,468.337280 321.433502,465.316528 
	C318.545715,463.176880 317.435120,455.489929 319.386902,450.369904 
	C319.848328,449.159363 320.718842,448.104767 321.686951,446.699982 
z"/>
<path fill="#e6b325" opacity="1.000000" stroke="none" 
	d="
M795.232117,712.187622 
	C797.396301,720.059753 794.079895,726.798950 787.337402,728.884827 
	C781.250671,730.767822 775.458801,727.550659 773.348938,721.114868 
	C771.537537,715.589661 774.417053,709.072510 779.789185,706.538696 
	C785.285339,703.946350 791.284058,706.013000 795.232117,712.187622 
z"/>
<path fill="#e6b325" opacity="1.000000" stroke="none" 
	d="
M506.619873,237.271790 
	C511.031586,242.204987 511.412933,246.735397 508.098480,251.434479 
	C504.945374,255.904907 499.952393,257.477356 495.459717,255.414932 
	C491.217133,253.467285 488.790253,248.620331 489.849854,243.763275 
	C491.530334,236.060226 499.484406,231.929672 506.619873,237.271790 
z"/>
<path fill="#e6b325" opacity="1.000000" stroke="none" 
	d="
M505.889465,595.879150 
	C501.581329,571.726135 497.325470,548.000854 493.151154,524.261230 
	C492.230011,519.022644 491.480957,513.746338 490.886810,508.461090 
	C490.627869,506.157410 490.674591,503.247253 493.835602,503.097107 
	C496.734741,502.959412 496.715210,505.845734 497.117584,507.892700 
	C507.122314,558.785278 514.991577,610.090027 526.617554,660.669861 
	C526.969482,662.200989 527.930847,663.768005 526.285095,665.531250 
	C523.631897,663.921509 522.900146,661.080994 521.834229,658.592590 
	C515.097900,642.866516 512.171753,626.105347 508.669800,609.504333 
	C507.742676,605.109253 506.869202,600.702881 505.889465,595.879150 
z"/>
<path fill="#e6b325" opacity="1.000000" stroke="none" 
	d="
M551.717407,596.970947 
	C554.068726,575.875793 556.324707,555.222046 558.756653,534.589050 
	C559.728699,526.342529 560.600891,518.055847 562.843811,510.018402 
	C563.463257,507.798615 564.145142,504.939026 567.184998,505.517456 
	C570.586365,506.164642 569.827881,509.049164 569.510376,511.593567 
	C565.948669,540.140503 563.868713,568.866699 559.302063,597.290039 
	C556.401184,615.345398 553.218750,633.355469 550.130127,651.380371 
	C550.062439,651.775513 549.603882,652.103699 548.375427,653.702393 
	C546.209351,633.892578 549.780151,615.693909 551.717407,596.970947 
z"/>
<path fill="#e6b325" opacity="1.000000" stroke="none" 
	d="
M564.432251,464.557678 
	C558.606262,457.880341 556.059692,449.872986 552.876526,442.240509 
	C549.235718,433.510803 545.984619,424.617188 542.651306,415.761963 
	C542.015015,414.071655 541.626343,412.247833 541.410217,410.451080 
	C541.196533,408.674896 541.938293,407.169769 543.698608,406.422302 
	C545.729675,405.559875 547.307068,406.445435 548.457581,408.029327 
	C549.224976,409.085876 549.790405,410.333008 550.240173,411.569763 
	C556.536194,428.881287 562.797546,446.205444 569.063660,463.527832 
	C569.402710,464.465149 569.657227,465.413483 569.166748,466.356354 
	C567.120728,467.147369 566.003174,465.696838 564.432251,464.557678 
z"/>
<path fill="#e6b325" opacity="1.000000" stroke="none" 
	d="
M509.514648,428.553101 
	C515.345215,420.143646 519.858032,411.262970 526.113708,403.584534 
	C528.094849,404.786255 527.142090,405.885406 526.756226,406.864319 
	C519.754883,424.627930 509.517548,440.535583 498.512573,455.999023 
	C498.034424,456.670990 497.453888,457.283508 496.853210,457.852051 
	C495.718811,458.925781 494.394287,459.875854 492.910339,458.685486 
	C491.569611,457.609985 492.321014,456.188782 492.977234,455.064545 
	C495.990906,449.901520 499.018707,444.744354 502.170654,439.665283 
	C504.447174,435.996887 506.926727,432.454437 509.514648,428.553101 
z"/>
<path fill="#e6b325" opacity="1.000000" stroke="none" 
	d="
M391.556519,671.485962 
	C397.923187,680.466858 404.088989,689.149597 410.254791,697.832336 
	C409.776062,698.196899 409.297333,698.561523 408.818634,698.926147 
	C405.649933,698.570984 403.965240,695.934143 402.056580,693.849304 
	C394.396759,685.482666 387.663086,676.355164 380.638885,667.464966 
	C377.026550,662.892944 373.141418,658.537292 369.443787,654.031250 
	C367.856995,652.097534 364.545593,650.000854 367.405426,647.424561 
	C369.945038,645.136780 372.379211,647.931946 374.175720,649.775696 
	C380.584961,656.353516 386.233246,663.565308 391.556519,671.485962 
z"/>
<path fill="#e6b325" opacity="1.000000" stroke="none" 
	d="
M396.668671,656.226685 
	C393.787750,649.801941 391.335327,643.622498 389.521301,637.204407 
	C388.920593,635.079163 388.174835,632.606873 390.974030,631.705505 
	C393.695862,630.829163 394.649872,633.132812 395.469208,635.245117 
	C402.444183,653.227295 409.808380,671.065979 415.463257,689.533325 
	C415.919159,691.022217 417.029663,692.554871 414.981628,694.805725 
	C407.101990,682.695251 402.752869,669.238892 396.668671,656.226685 
z"/>
<path fill="#e6b325" opacity="1.000000" stroke="none" 
	d="
M444.236389,420.255737 
	C453.084198,410.667450 460.993866,400.616272 471.329498,393.154633 
	C472.961090,394.530029 472.192719,395.340271 471.628815,396.126068 
	C461.737885,409.907867 451.100769,423.101257 439.909943,435.838257 
	C438.162842,437.826721 436.082520,441.876556 432.833344,438.993896 
	C429.834595,436.333435 433.618164,433.968109 435.081573,431.890503 
	C437.851959,427.957306 441.003540,424.292633 444.236389,420.255737 
z"/>
<path fill="#e6b325" opacity="1.000000" stroke="none" 
	d="
M601.552002,418.550385 
	C605.780334,426.973541 610.544067,434.723755 614.102112,443.630219 
	C610.140381,443.994904 608.203796,441.798737 606.409607,439.437347 
	C600.948853,432.250275 596.802734,424.279633 592.810974,416.235046 
	C588.748169,408.047302 584.850342,399.777740 580.853577,391.557007 
	C580.158813,390.127838 579.593079,388.740265 581.122437,387.538239 
	C582.592590,386.382751 583.956970,387.062531 585.199890,388.016663 
	C587.240356,389.583038 588.422546,391.800262 589.526306,394.039124 
	C593.495972,402.090729 597.427917,410.160919 601.552002,418.550385 
z"/>
<path fill="#e6b325" opacity="1.000000" stroke="none" 
	d="
M674.647461,638.438721 
	C669.553589,656.397217 664.500610,673.932800 656.391541,690.423401 
	C655.054871,684.452576 656.434448,678.837097 657.848206,673.383972 
	C661.767334,658.266907 666.108643,643.259277 670.288635,628.209900 
	C670.421875,627.730103 670.581482,627.251465 670.788208,626.799500 
	C671.731262,624.737732 672.319641,621.705322 675.397156,622.734680 
	C678.346863,623.721191 677.256958,626.608826 676.854309,628.809326 
	C676.286682,631.911804 675.483887,634.971375 674.647461,638.438721 
z"/>
<path fill="#e6b325" opacity="1.000000" stroke="none" 
	d="
M698.753479,632.842224 
	C692.344543,647.991516 683.035400,661.031372 674.362915,674.438171 
	C673.325317,676.042236 671.852173,678.028198 669.492249,676.566528 
	C667.150513,675.116089 668.275879,673.070801 669.213196,671.287720 
	C676.995667,656.482971 687.154968,643.267761 697.003662,629.846863 
	C697.482849,629.193848 698.098816,628.557251 699.176208,628.877930 
	C700.274841,630.141296 699.047974,631.295898 698.753479,632.842224 
z"/>
<path fill="#e6b325" opacity="1.000000" stroke="none" 
	d="
M691.157715,585.295044 
	C700.849060,577.987183 709.752319,570.191223 720.253296,563.794189 
	C720.942322,567.028687 719.130554,568.142883 718.072449,569.380737 
	C711.216309,577.401550 702.908142,583.754578 694.206177,589.620178 
	C692.612366,590.694458 690.752869,591.528564 689.330872,589.643555 
	C687.938538,587.797913 689.691162,586.666748 691.157715,585.295044 
z"/>
<path fill="#e6b325" opacity="1.000000" stroke="none" 
	d="
M721.804810,588.677856 
	C720.673645,592.030151 719.745178,595.035706 718.664368,597.985413 
	C718.112915,599.490479 717.515869,601.557007 715.344788,600.755066 
	C713.345520,600.016602 713.846375,598.082153 714.314636,596.448853 
	C716.999329,587.086731 721.159668,578.356567 725.948364,569.805725 
	C727.068054,576.508179 723.409851,582.182678 721.804810,588.677856 
z"/>
<path fill="#e6b325" opacity="1.000000" stroke="none" 
	d="
M336.746582,576.336365 
	C337.011566,574.297668 337.608368,572.924072 339.487701,572.947876 
	C341.474945,572.972961 342.533783,574.478882 342.858612,576.101074 
	C343.701874,580.311951 344.272339,584.578430 344.914490,588.828308 
	C345.680756,593.899292 346.453125,598.970093 347.125885,604.053833 
	C347.332855,605.617676 347.863586,607.359253 346.139862,608.685913 
	C343.108704,608.605591 342.696198,606.039673 341.898407,603.989624 
	C338.495544,595.245483 337.143799,586.096802 336.746582,576.336365 
z"/>
<path fill="#e6b325" opacity="1.000000" stroke="none" 
	d="
M360.877075,592.202515 
	C355.215271,588.339539 350.259979,584.192078 345.917542,579.360657 
	C344.410156,577.683594 343.269409,575.542725 345.400726,573.673950 
	C347.354401,571.960938 349.244476,573.438110 350.641449,574.842834 
	C356.848022,581.083923 363.440094,586.892944 370.097961,592.636963 
	C371.203644,593.590881 372.309021,594.705811 371.686493,596.747620 
	C367.418732,597.212830 364.332703,594.716125 360.877075,592.202515 
z"/>
</svg>