<svg version="1.1" id="Layer_1" xmlns="http://www.w3.org/2000/svg" xmlns:xlink="http://www.w3.org/1999/xlink" x="0px" y="0px"
	 width="100%" viewBox="0 0 1024 1024" enable-background="new 0 0 1024 1024" xml:space="preserve">
<path fill="#e6b325" opacity="1.000000" stroke="none" 
	d="
M507.846741,197.079437 
	C509.338013,170.000885 509.912842,143.352463 512.778503,116.847229 
	C513.153442,113.379189 513.605103,109.894585 514.956665,106.625877 
	C516.564819,102.736755 519.247437,100.248520 523.702148,100.518242 
	C528.144470,100.787201 530.801941,103.520561 531.642761,107.613419 
	C532.508911,111.829887 533.110657,116.173767 533.171570,120.471199 
	C533.738403,160.470078 532.082825,200.422729 530.433655,240.373520 
	C530.234497,245.197159 530.070557,250.033417 529.560303,254.828705 
	C529.269104,257.564545 530.577576,258.642792 532.699402,259.753876 
	C548.432434,267.992615 555.535522,282.740601 552.298523,300.124695 
	C551.290283,305.539368 548.810059,310.171295 544.944519,314.040619 
	C543.323059,315.663666 541.491821,317.077271 539.596375,318.724854 
	C564.320740,337.000946 570.180481,359.776581 558.420166,387.952393 
	C563.831665,388.508057 569.196899,388.881317 574.505066,389.648590 
	C581.250061,390.623566 587.976562,391.778748 594.661621,393.104950 
	C606.806702,395.514374 612.239502,404.334045 614.990601,415.304535 
	C618.730103,430.216248 614.669128,442.922943 603.461060,453.372253 
	C599.861694,456.727997 595.962646,459.524628 590.694336,459.333282 
	C588.165283,459.241394 587.280762,460.423706 587.146667,462.955322 
	C586.399170,477.069611 586.343689,477.066681 599.676086,480.061493 
	C612.072388,482.846039 619.911804,496.480469 616.639343,509.917511 
	C615.539856,514.432495 614.050598,518.873169 612.454407,523.243652 
	C580.520752,610.683044 548.543701,698.106628 516.581238,785.535522 
	C513.550232,793.826294 510.565338,802.133911 507.545776,810.428894 
	C504.993774,817.439331 499.947723,821.423218 494.086823,821.083679 
	C486.943268,820.669922 481.308502,815.863831 479.704254,808.610413 
	C463.058868,733.350403 446.461426,658.079712 429.794403,582.824463 
	C425.262756,562.363037 418.884399,542.343628 415.177307,521.676147 
	C414.023041,515.241211 413.360107,508.860565 413.942047,502.322784 
	C415.142242,488.838623 422.656891,480.591766 435.357574,477.270233 
	C440.471649,475.932800 442.331726,473.147766 442.729584,468.436279 
	C442.868622,466.790039 443.310852,465.165314 443.667236,463.542297 
	C444.625305,459.179352 443.881317,456.866791 438.537750,455.806427 
	C425.909271,453.300415 418.932617,443.747833 418.629395,430.665588 
	C418.509644,425.497711 418.318909,420.391266 419.689270,415.319183 
	C425.325745,394.457367 437.375854,388.163544 457.505157,389.296783 
	C464.082306,389.667084 470.401459,389.103058 476.669647,388.379913 
	C477.456451,387.118042 476.843933,386.213257 476.396667,385.369446 
	C465.510590,364.831116 471.839996,338.246307 489.268433,326.110870 
	C489.946869,325.638519 490.528015,325.021210 491.131256,324.446991 
	C497.143646,318.724030 497.264313,318.616028 492.016449,312.602905 
	C481.876801,300.984650 482.384857,275.254608 500.270294,264.289276 
	C504.842896,261.485870 505.968933,258.400787 506.064789,253.492676 
	C506.428925,234.845978 507.208801,216.207413 507.846741,197.079437 
M446.587067,548.078308 
	C463.001465,621.542786 479.415863,695.007263 495.830261,768.471741 
	C500.362732,759.072754 503.905060,749.612061 507.381897,740.127258 
	C526.803162,687.146179 546.137573,634.132996 565.655579,581.187622 
	C573.137573,560.891846 579.885071,540.319580 588.850220,520.572571 
	C593.080444,511.255005 588.791138,504.655487 578.792175,503.179382 
	C574.262817,502.510742 569.839600,503.374603 565.403442,503.152496 
	C545.290283,502.145508 525.193481,500.815399 505.083832,499.731110 
	C490.624817,498.951447 476.170380,498.224274 461.671875,498.149231 
	C448.944122,498.083344 437.627533,512.408203 440.683899,524.076843 
	C442.695831,531.758057 444.186401,539.617126 446.587067,548.078308 
M496.677338,456.279541 
	C495.017212,456.180328 493.322021,456.262451 491.703369,455.949005 
	C486.174774,454.878357 482.774109,451.122955 482.665619,446.179016 
	C482.551422,440.974152 485.922424,436.995972 491.583313,435.759155 
	C493.370636,435.368683 495.190491,434.947662 497.006073,434.893127 
	C523.635681,434.093140 550.284485,432.527374 576.822632,436.409882 
	C579.245361,436.764313 581.413757,436.595001 583.414368,434.999847 
	C588.014404,431.332214 590.021362,424.542419 588.120728,418.720642 
	C586.201233,412.840607 581.197021,413.245575 576.564697,413.238678 
	C556.072144,413.208191 535.579468,413.296783 515.086792,413.312531 
	C496.590698,413.326721 478.123322,411.835419 459.617065,412.270813 
	C450.100952,412.494690 441.860382,417.877686 439.783783,425.394073 
	C438.150940,431.304199 439.743683,433.760254 445.755096,434.846710 
	C448.536102,435.349365 451.343842,435.863403 454.026001,436.725342 
	C464.629730,440.132782 470.216583,449.333374 468.578003,460.367554 
	C467.854706,465.238098 467.199585,470.118774 466.542084,474.791626 
	C468.542328,476.097534 470.260315,475.776093 471.852234,475.532166 
	C481.276581,474.088135 490.832642,474.031403 500.261292,474.161438 
	C519.399353,474.425385 538.544067,473.568726 557.679382,474.613892 
	C566.114441,475.074585 566.126892,474.787811 566.892273,466.172333 
	C566.965820,465.343964 567.104248,464.520935 567.224426,463.697144 
	C568.202271,456.990936 567.743347,456.325470 561.129456,456.307434 
	C539.964966,456.249695 518.800354,456.277924 496.677338,456.279541 
M507.295563,381.232880 
	C508.589203,381.984253 509.831665,382.846832 511.184479,383.469666 
	C523.414368,389.099976 540.231506,382.592957 543.655212,370.939575 
	C547.634888,357.394073 538.905762,340.653381 525.459717,336.244202 
	C518.746155,334.042755 512.286011,334.825775 506.367340,338.745667 
	C491.443390,348.629700 491.635773,370.255859 507.295563,381.232880 
M529.197449,294.868500 
	C529.609802,293.157654 531.112061,291.527466 529.979126,289.683105 
	C527.291626,285.308411 524.549683,280.963562 521.694458,276.697205 
	C520.542664,274.976166 518.877625,274.995239 517.465027,276.462097 
	C513.272278,280.815979 510.600800,286.185944 507.705444,291.396484 
	C507.181610,292.339203 507.441162,293.375244 508.020721,294.230255 
	C510.901611,298.480499 513.737732,302.764893 516.750000,306.921021 
	C518.942749,309.946442 521.066345,309.251221 522.957275,306.432129 
	C525.271851,302.981506 527.457825,299.467194 529.197449,294.868500 
z"/>
<path fill="#e6b325" opacity="1.000000" stroke="none" 
	d="
M755.306885,669.318726 
	C775.215698,646.144470 792.207764,621.612183 801.826355,592.612671 
	C805.280884,582.197510 806.771851,571.621582 805.139282,560.643494 
	C804.114136,553.750427 808.403503,547.710083 814.785156,546.352051 
	C820.588318,545.117249 826.398621,548.798645 828.397217,555.414185 
	C831.416443,565.407898 830.611450,575.548950 828.640869,585.584412 
	C823.127136,613.664124 809.579285,638.076111 793.072083,660.906921 
	C765.099365,699.595520 731.010559,731.728760 689.248413,755.305237 
	C673.915161,763.961487 657.837524,770.658325 640.133667,772.737854 
	C635.625610,773.267395 631.172607,773.305237 626.717468,772.355835 
	C620.823364,771.099731 617.231873,767.733154 616.982666,763.145874 
	C616.749878,758.860718 619.846680,755.126282 625.661194,753.626221 
	C637.121521,750.669495 648.471558,747.484619 659.388245,742.797607 
	C685.595703,731.545654 708.306519,715.089111 729.245483,696.032043 
	C738.361511,687.735352 747.078735,679.000549 755.306885,669.318726 
z"/>
<path fill="#e6b325" opacity="1.000000" stroke="none" 
	d="
M651.443848,210.622742 
	C680.119629,267.438446 708.631226,323.921051 737.148682,380.400726 
	C738.354065,382.788116 739.499573,385.200256 739.763367,387.898651 
	C740.243103,392.807159 738.500366,396.784912 734.309204,399.406342 
	C729.923279,402.149506 725.458130,401.956085 721.200195,398.967224 
	C718.677185,397.196198 717.072876,394.682617 715.705017,391.971191 
	C687.582642,336.225708 659.253052,280.583588 631.401672,224.703110 
	C618.329224,198.474899 606.917847,171.470444 596.806152,143.943863 
	C595.894531,141.462189 595.235657,138.850113 594.801453,136.241638 
	C594.403137,133.848679 594.856079,131.457123 597.326233,130.239685 
	C599.774414,129.033066 601.972595,130.001602 603.622681,131.838242 
	C605.616821,134.057846 607.504272,136.411743 609.154785,138.895630 
	C624.468262,161.941254 638.053406,186.010376 651.443848,210.622742 
z"/>
<path fill="#e6b325" opacity="1.000000" stroke="none" 
	d="
M327.815979,369.735291 
	C326.423767,372.432983 325.334534,374.880280 323.955963,377.151947 
	C320.582581,382.710999 314.998566,384.594452 309.920044,382.040009 
	C304.793579,379.461517 302.649170,373.823212 305.442688,367.953583 
	C311.235840,355.781036 317.412537,343.788666 323.549377,331.782471 
	C353.554657,273.080017 382.791412,213.984177 413.610321,155.698639 
	C418.121674,147.166672 422.660126,138.603958 428.885590,131.144730 
	C431.293732,128.259354 434.076935,124.247772 438.275055,126.209557 
	C442.556458,128.210251 441.139801,132.868332 440.229004,136.514908 
	C437.141144,148.878143 431.407410,160.212570 425.823273,171.542267 
	C393.295685,237.538101 360.615753,303.458862 327.815979,369.735291 
z"/>
<path fill="#e6b325" opacity="1.000000" stroke="none" 
	d="
M267.438477,729.596680 
	C237.796951,708.414734 212.702591,683.449463 194.553909,651.977478 
	C186.393433,637.826355 180.690979,622.843079 179.188522,606.434021 
	C178.757523,601.726746 179.193527,597.119446 180.488281,592.603149 
	C181.267090,589.886536 182.729324,587.718262 185.942795,587.595703 
	C189.207443,587.471130 190.743073,589.631042 191.627350,592.290100 
	C192.569656,595.123718 193.271439,598.041382 193.994324,600.943237 
	C200.899078,628.661194 215.705292,651.979553 234.573853,672.888306 
	C261.270081,702.471008 292.932129,725.378296 329.172607,741.937073 
	C333.257751,743.803650 337.569244,745.186768 341.606567,747.143188 
	C347.506470,750.002258 349.707977,755.096985 347.608887,760.180420 
	C345.628662,764.975952 340.648163,767.284485 334.620575,765.246094 
	C319.906097,760.269897 306.052094,753.315125 292.531250,745.731201 
	C283.956879,740.921814 275.685242,735.601501 267.438477,729.596680 
z"/>
<path fill="#e6b325" opacity="1.000000" stroke="none" 
	d="
M627.526978,330.400269 
	C611.887634,300.195282 598.384583,269.382019 583.905640,239.035233 
	C582.770813,236.656799 582.018799,234.053650 581.408508,231.479172 
	C580.816956,228.983566 581.741638,226.884079 584.060425,225.564972 
	C586.555298,224.145676 588.615967,225.207748 590.335938,226.952179 
	C591.487671,228.120331 592.363770,229.580154 593.263794,230.973633 
	C607.674194,253.285126 618.210632,277.640076 630.209656,301.219513 
	C644.855103,329.999481 659.276489,358.893677 673.719055,387.776337 
	C675.197327,390.732605 676.220520,393.925537 677.329712,397.053070 
	C677.827637,398.457184 678.216064,400.046600 676.679199,401.151459 
	C675.266174,402.167297 673.734558,401.716187 672.413940,401.001312 
	C667.738953,398.470886 664.423157,394.512329 661.606934,390.137390 
	C649.248413,370.939453 638.351685,350.903748 627.526978,330.400269 
z"/>
<path fill="#e6b325" opacity="1.000000" stroke="none" 
	d="
M379.584686,335.649261 
	C396.858673,297.343872 413.978210,259.385468 431.153168,221.452133 
	C432.384247,218.733139 433.907715,216.126282 435.505219,213.600082 
	C436.702515,211.706757 438.384399,210.356567 441.104095,211.092545 
	C442.252106,214.203537 440.743683,216.933533 439.832367,219.672516 
	C426.609314,259.414398 409.886230,297.696838 391.673523,335.368073 
	C383.698914,351.862793 376.104767,368.541321 368.181458,385.061340 
	C366.916992,387.697693 365.947937,392.338623 361.998444,390.850464 
	C357.687469,389.226166 360.856537,385.288025 361.612671,382.626465 
	C366.174622,366.568665 372.887634,351.311188 379.584686,335.649261 
z"/>
<path fill="#e6b325" opacity="1.000000" stroke="none" 
	d="
M643.271851,650.470947 
	C641.281799,651.430237 639.686096,652.416931 637.950439,652.931091 
	C635.861511,653.549927 633.518494,653.947876 632.257874,651.426208 
	C631.114563,649.139038 632.698059,647.614014 634.215027,646.288269 
	C639.731079,641.467346 645.519714,636.937988 650.817871,631.891663 
	C680.033203,604.064636 708.576965,575.605347 732.730042,543.100769 
	C736.314575,538.276794 739.646179,533.310486 742.333923,527.916748 
	C742.952576,526.675293 743.290771,524.974121 745.497559,524.780823 
	C746.869995,526.565002 745.946106,528.431885 745.485779,530.257874 
	C741.812012,544.831909 733.435669,556.877869 724.546936,568.567993 
	C703.800964,595.852295 680.302124,620.560059 654.136047,642.703369 
	C650.843567,645.489685 647.125244,647.772705 643.271851,650.470947 
z"/>
<path fill="#e6b325" opacity="1.000000" stroke="none" 
	d="
M233.864288,444.182220 
	C229.637451,449.475098 226.715408,449.451630 223.074615,444.563202 
	C220.492096,441.095612 217.876648,437.651062 215.208740,434.248932 
	C212.219910,430.437653 208.439438,428.100708 203.513062,427.324402 
	C197.456009,426.369843 195.861130,421.903748 200.012527,417.342987 
	C207.133133,409.520386 213.513794,401.309509 216.652588,391.001495 
	C217.456360,388.361816 219.737747,387.055908 221.931778,385.985535 
	C224.906372,384.534363 227.889130,385.740814 227.980408,388.867157 
	C228.238937,397.721527 234.847321,402.179138 239.992950,407.642181 
	C245.133072,413.099335 245.791718,415.092957 240.696106,420.144745 
	C234.391495,426.395172 233.927322,433.853607 234.270248,441.806976 
	C234.298431,442.460388 234.109802,443.123169 233.864288,444.182220 
M218.444290,421.928802 
	C220.223083,423.001617 221.185577,425.232483 223.929947,425.707275 
	C224.909821,421.234009 228.370514,418.124969 230.360199,413.949829 
	C227.338562,411.100372 224.488602,408.412781 221.346008,405.449249 
	C218.303116,409.871338 215.530838,413.900177 212.630859,418.114594 
	C214.570267,419.381836 216.219498,420.459473 218.444290,421.928802 
z"/>
<path fill="#e6b325" opacity="1.000000" stroke="none" 
	d="
M791.161377,395.750732 
	C793.785583,400.552490 797.600159,403.754608 801.403015,406.999847 
	C804.313477,409.483582 805.573425,412.624115 802.313538,415.520142 
	C794.881592,422.122467 793.566162,430.795197 793.323547,439.946503 
	C793.283936,441.440643 793.385193,442.956055 793.167542,444.424011 
	C792.798401,446.914093 791.559448,448.804321 788.843811,449.197968 
	C786.134705,449.590759 784.313171,448.195160 783.324158,445.869080 
	C782.027039,442.818420 781.043152,439.636292 779.824829,436.550049 
	C777.179871,429.849915 772.619629,425.186279 765.658508,422.821808 
	C759.560547,420.750519 758.453064,417.391907 763.021912,413.066376 
	C770.615051,405.877563 775.374023,397.131989 779.061584,387.596527 
	C779.849915,385.558075 780.690857,383.408417 783.406372,383.463104 
	C786.017456,383.515686 787.008179,385.524109 787.848022,387.577942 
	C788.914246,390.185577 789.946777,392.806976 791.161377,395.750732 
M782.358154,422.837463 
	C783.222473,423.479370 783.529419,424.954834 784.887451,424.697235 
	C786.803528,421.265228 788.616211,417.927338 790.523438,414.644379 
	C791.358643,413.206757 791.746521,411.942474 790.281250,410.676605 
	C787.554871,408.321228 784.856506,405.933380 782.059692,403.483002 
	C779.493835,407.126404 776.579102,411.265228 773.673157,415.391602 
	C776.637756,417.892517 779.277649,420.119507 782.358154,422.837463 
z"/>
<path fill="#e6b325" opacity="1.000000" stroke="none" 
	d="
M348.582947,520.461914 
	C349.233215,516.461304 349.693573,512.837891 350.458679,509.279968 
	C351.032196,506.612793 352.669281,504.614349 355.684967,505.051453 
	C358.685791,505.486389 359.573273,507.930176 359.670715,510.592163 
	C359.737152,512.406982 359.427368,514.232422 359.363068,516.055786 
	C359.207184,520.478943 360.659149,524.166382 364.263062,526.941162 
	C365.838318,528.153992 367.434387,529.433411 368.681183,530.960144 
	C371.401001,534.290527 372.793030,538.008362 369.558960,541.759033 
	C365.941101,545.954834 364.834686,550.777039 365.153625,556.116760 
	C365.344025,559.304260 364.901276,562.357666 361.204468,563.180786 
	C357.264496,564.058105 355.620300,561.322266 354.300385,558.187622 
	C352.949829,554.980225 351.512115,551.794067 349.866302,548.730957 
	C348.342896,545.895691 345.919220,544.248047 342.511322,544.701904 
	C340.761627,544.934875 339.097137,544.880188 338.082855,543.241150 
	C336.956299,541.420654 337.799530,539.827332 338.830200,538.180969 
	C342.342346,532.570557 346.701996,527.425232 348.582947,520.461914 
M351.690948,534.367920 
	C351.436340,538.424744 355.260406,538.730408 357.256378,541.019775 
	C360.124725,536.645447 355.958618,535.123413 354.470490,532.822998 
	C353.465729,531.269836 352.630737,532.958740 351.690948,534.367920 
z"/>
<path fill="#e6b325" opacity="1.000000" stroke="none" 
	d="
M309.566467,643.463928 
	C292.350922,630.053345 277.681946,614.731323 265.770203,596.838806 
	C264.209778,594.494934 262.883026,591.980896 261.614441,589.461853 
	C260.592194,587.432068 260.039032,585.130432 262.478546,583.754578 
	C264.731262,582.484009 266.152435,584.234070 267.442780,585.841919 
	C273.481628,593.366516 279.428131,600.968079 285.590118,608.390564 
	C302.302094,628.521484 321.819244,645.503906 343.787354,659.674927 
	C346.853912,661.653015 350.179382,663.225708 353.327515,665.083496 
	C354.641205,665.858704 356.652374,665.999878 356.735809,669.114441 
	C338.670288,664.569763 323.860840,654.886780 309.566467,643.463928 
z"/>
<path fill="#e6b325" opacity="1.000000" stroke="none" 
	d="
M662.755371,513.659302 
	C663.214478,510.639404 663.513184,507.998688 664.059875,505.410309 
	C664.518860,503.236969 665.414185,501.149963 668.034058,500.918884 
	C670.663513,500.686951 672.058960,502.437256 672.571960,504.684448 
	C673.845520,510.262787 677.243591,513.890808 682.059204,516.813477 
	C686.942993,519.777466 687.269409,522.492004 683.356262,526.369690 
	C679.652649,530.039795 678.645386,534.183533 679.460510,539.076660 
	C679.677063,540.376892 679.997375,541.732605 679.835266,543.007629 
	C679.523682,545.458252 678.352478,547.497437 675.691589,548.004028 
	C673.176941,548.482788 671.334106,547.052429 670.574158,544.930420 
	C668.312744,538.615051 663.679626,535.110046 657.699280,532.679260 
	C653.871155,531.123169 653.630310,528.244629 656.141602,525.065796 
	C658.810242,521.687805 661.721802,518.448181 662.755371,513.659302 
M668.747681,521.591003 
	C667.987915,522.987488 666.616394,524.090149 666.645935,525.987366 
	C667.895569,527.141663 669.106018,528.945129 671.068176,527.641968 
	C672.378601,526.771606 673.491089,525.019836 673.174438,523.463745 
	C672.814087,521.692566 671.360168,520.458923 668.747681,521.591003 
z"/>
<path fill="#e6b325" opacity="1.000000" stroke="none" 
	d="
M281.716370,476.049561 
	C286.726227,471.419647 288.141541,465.692749 288.573120,459.588104 
	C288.728668,457.387756 288.765656,455.216095 291.268127,454.037628 
	C293.766754,455.055725 294.858063,457.377808 296.000824,459.504333 
	C298.092407,463.396515 300.340637,466.801086 305.028259,468.167694 
	C307.951904,469.020050 308.995361,472.012207 306.682251,474.065918 
	C301.927917,478.286987 303.061310,483.436584 303.642975,488.447540 
	C303.998169,491.507202 304.344849,494.373535 301.053558,495.623260 
	C297.491821,496.975586 296.048584,493.962982 294.641663,491.523865 
	C292.229126,487.341339 290.174103,483.151550 284.338318,482.520874 
	C281.334778,482.196228 280.090332,479.527191 281.716370,476.049561 
z"/>
<path fill="#e6b325" opacity="1.000000" stroke="none" 
	d="
M733.876587,479.952332 
	C731.328308,482.744598 731.140564,485.892914 730.865356,489.058929 
	C730.634033,491.720886 729.647888,494.059784 726.519714,494.198975 
	C723.684082,494.325134 722.457764,492.243866 721.804932,489.884125 
	C720.522217,485.247375 719.604004,480.695038 713.973572,478.806030 
	C711.189697,477.872040 710.987915,474.649078 713.208557,472.611664 
	C717.839966,468.362488 720.235901,463.193939 721.144592,457.081146 
	C721.433167,455.140503 722.444458,453.050751 724.866028,453.004333 
	C727.569214,452.952454 727.764404,455.433472 728.183411,457.261353 
	C729.398315,462.562195 731.393799,467.047729 736.099731,470.519440 
	C741.097839,474.206757 736.572205,476.970612 733.876587,479.952332 
z"/>
<path fill="#e6b325" opacity="1.000000" stroke="none" 
	d="
M508.893738,556.238403 
	C509.848083,547.522522 510.743195,539.267395 511.659729,531.014771 
	C511.893433,528.910339 511.796326,525.946838 514.657104,526.229492 
	C517.363159,526.496887 517.052185,529.524658 516.946228,531.575195 
	C516.422729,541.703796 515.837891,551.831665 515.079468,561.945129 
	C513.911072,577.525024 512.582092,593.092834 511.324249,608.666016 
	C509.732361,628.375183 508.133118,648.083740 506.559753,667.794434 
	C506.096680,673.595337 505.727905,679.403625 505.277466,685.205566 
	C505.162231,686.689941 505.039368,688.198853 504.669556,689.631836 
	C504.235352,691.314453 503.338715,692.868896 501.260620,692.574829 
	C499.234558,692.288269 498.602509,690.637817 498.691711,688.857910 
	C499.074341,681.223938 499.424805,673.584839 500.022461,665.966064 
	C501.152313,651.563721 502.454895,637.174988 503.665955,622.778931 
	C505.267181,603.745117 506.864288,584.710999 508.424377,565.673767 
	C508.668823,562.691162 508.708282,559.691833 508.893738,556.238403 
z"/>
<path fill="#e6b325" opacity="1.000000" stroke="none" 
	d="
M528.270325,607.386841 
	C534.878967,583.100342 540.960571,559.091187 548.334167,535.445374 
	C549.054077,533.136658 549.203003,528.893982 552.527039,529.786682 
	C555.984985,530.715393 553.797485,534.441162 553.268677,536.775635 
	C546.695068,565.797791 538.415222,594.381165 530.850586,623.148987 
	C530.273438,625.343811 529.480042,628.255920 526.428345,627.475159 
	C523.115234,626.627502 523.853516,623.792786 524.546204,621.271912 
	C525.779785,616.782959 526.945862,612.275452 528.270325,607.386841 
z"/>
<path fill="#e6b325" opacity="1.000000" stroke="none" 
	d="
M481.997437,602.775879 
	C478.313477,582.599731 474.729248,562.840271 471.164917,543.077209 
	C470.693604,540.464050 470.273346,537.839294 469.925079,535.207214 
	C469.704956,533.543701 469.500610,531.539246 471.627228,531.099121 
	C473.856934,530.637634 474.339203,532.725464 474.689453,534.283386 
	C476.617737,542.860535 478.540771,551.441589 480.262909,560.061829 
	C484.132996,579.433594 487.883392,598.829346 491.685181,618.214783 
	C491.844788,619.028687 492.128937,619.830811 492.184174,620.649963 
	C492.314178,622.575378 492.057556,624.512573 489.843170,625.037231 
	C487.301331,625.639526 486.196289,623.893677 485.758179,621.758301 
	C484.490417,615.579529 483.315033,609.381714 481.997437,602.775879 
z"/>
</svg>