<svg version="1.1" id="Layer_1" xmlns="http://www.w3.org/2000/svg" xmlns:xlink="http://www.w3.org/1999/xlink" x="0px" y="0px"
	 width="100%" viewBox="0 0 1024 1024" enable-background="new 0 0 1024 1024" xml:space="preserve">
<path fill="#e6b325" opacity="1.000000" stroke="none" 
	d="
M627.440491,315.602051 
	C629.084656,318.103516 630.442993,320.147675 632.932007,321.615234 
	C638.315063,324.789246 638.430420,327.208313 633.254395,330.855286 
	C619.285767,340.697388 607.030823,352.429047 595.195618,364.644012 
	C587.684631,372.395966 580.282227,380.252716 573.692871,389.941956 
	C581.043152,393.725128 587.620056,397.852905 594.104736,402.124054 
	C595.547180,403.074127 596.629089,402.341309 597.477539,401.124481 
	C608.573669,385.211456 625.752502,380.038818 643.213562,376.008942 
	C665.680908,370.823608 688.417236,370.263153 711.144165,374.768494 
	C713.746277,375.284363 716.356140,375.968262 718.820129,376.936462 
	C727.008728,380.154114 729.309448,387.628815 725.018250,395.242676 
	C720.287659,403.636139 716.918213,412.736115 711.446350,420.778534 
	C699.363037,438.538757 685.340454,454.444946 668.210815,467.524597 
	C663.808350,470.886169 658.884216,473.276611 653.760559,475.704193 
	C653.806885,479.197876 655.535828,482.123596 656.402039,485.262360 
	C656.924744,487.156464 658.432495,487.189758 660.031555,486.909668 
	C674.056030,484.453247 686.600464,489.043488 699.007263,494.806213 
	C713.120605,501.361511 726.663940,508.763214 738.531921,518.960205 
	C742.468933,522.342834 746.276001,525.820557 748.492371,530.654297 
	C752.293884,538.945312 749.822876,546.704407 741.817200,551.085999 
	C735.948792,554.297852 729.623657,556.395508 723.217957,558.284424 
	C705.172485,563.605713 687.146790,568.993835 669.119568,574.376648 
	C666.554810,575.142456 663.850708,576.295105 661.312500,575.636475 
	C656.468811,574.379517 655.371521,577.136475 653.504761,580.729797 
	C649.063232,589.279175 648.763733,594.981079 657.378357,602.540894 
	C670.324524,613.901978 674.844055,630.940063 679.036011,647.328003 
	C681.834656,658.269043 684.513977,669.344116 683.316223,680.799866 
	C682.233826,691.153137 674.483093,695.883301 664.718323,692.021179 
	C651.555359,686.815186 638.536682,681.244690 625.447266,675.852051 
	C619.289307,673.315002 613.146179,670.735840 606.930420,668.347046 
	C601.854797,666.396423 597.126221,664.097839 594.504517,658.749817 
	C591.646240,659.478882 589.881409,661.384338 587.011230,663.522400 
	C592.324402,668.514648 597.107971,673.283875 602.181580,677.721619 
	C614.352905,688.367493 628.333801,696.697510 640.446045,707.438599 
	C643.558533,710.198792 647.055664,712.568970 649.255310,716.206421 
	C652.022339,720.782043 650.818665,724.512817 645.732849,725.853333 
	C643.022034,726.567810 641.471619,727.680237 640.347412,730.242371 
	C638.443787,734.581177 634.467773,736.280029 630.104309,737.406799 
	C602.855896,744.442932 575.182739,747.911682 547.037415,747.203979 
	C542.997437,747.102478 540.241943,748.252014 537.675476,751.483337 
	C532.564819,757.918091 526.340393,763.202637 518.966980,767.008118 
	C518.230286,767.388428 517.466248,767.745117 516.801636,768.231323 
	C508.446167,774.344666 502.207886,774.161316 494.101013,767.378601 
	C486.163239,760.737305 481.692627,751.784546 478.201874,742.354248 
	C476.949280,738.970398 475.077057,737.278687 471.711975,736.343384 
	C432.093292,725.331848 396.510834,706.770508 365.756866,679.290466 
	C363.657654,677.414734 361.571045,676.890808 358.910400,677.737915 
	C344.787018,682.234741 330.317322,681.328369 315.872803,680.248108 
	C307.644562,679.632751 302.656158,671.160522 305.820801,663.285583 
	C310.353424,652.006592 314.978210,640.749634 321.120483,630.224792 
	C322.764771,627.407227 322.574463,625.194153 321.095367,622.379517 
	C306.681671,594.951294 299.005554,565.695984 298.096710,534.737305 
	C297.887177,527.599548 298.414764,520.419495 298.986542,513.289734 
	C299.208099,510.526733 298.594940,508.532410 296.812012,506.518951 
	C292.822449,502.013580 289.282654,497.146088 286.950317,491.560730 
	C283.341461,482.918304 285.472137,476.103790 293.170135,470.716248 
	C297.084290,467.976868 301.575348,466.720093 306.101440,465.600830 
	C308.721069,464.953064 310.471130,463.738342 311.502808,461.078003 
	C323.004242,431.419617 340.461090,405.673401 363.086182,383.413452 
	C365.917145,380.628113 365.946991,377.653839 365.435730,374.282257 
	C364.010895,364.886383 365.154480,355.707825 367.669525,346.621674 
	C370.077301,337.923065 375.698914,332.725891 384.414490,330.568665 
	C387.771179,329.737793 390.680481,330.637054 393.545654,332.057617 
	C398.791748,334.658600 403.653839,337.945801 408.171509,341.598419 
	C411.433655,344.235992 413.961578,344.173737 417.484222,342.140747 
	C444.537994,326.527466 473.403442,315.429169 504.070160,309.626740 
	C514.296631,307.691772 522.938538,304.674652 529.523010,296.202698 
	C532.201416,292.756561 536.281128,290.303619 539.977051,287.768768 
	C544.502747,284.664825 549.474792,283.561035 554.525452,286.640686 
	C559.163330,289.468597 560.769226,293.773071 559.994568,299.065186 
	C559.383911,303.237000 561.999878,303.694611 565.203003,303.686035 
	C582.091125,303.640808 598.761597,305.510254 615.149536,309.642883 
	C619.514099,310.743561 623.851746,312.013824 627.440491,315.602051 
M445.266876,608.230591 
	C442.960693,605.604065 440.455444,603.125305 438.379272,600.328125 
	C418.423981,573.442444 412.649475,543.368591 419.178772,510.890564 
	C424.086273,486.479736 435.496002,465.519318 454.984802,449.576569 
	C469.715790,437.525970 486.416077,430.372955 505.866852,430.685883 
	C510.976044,430.768127 516.656616,431.044708 521.051514,429.669647 
	C525.413452,428.304993 526.126099,421.258911 528.720398,416.856934 
	C530.148499,414.433685 532.284302,412.086090 531.998840,408.672302 
	C530.770813,408.513977 529.793274,408.400360 528.819702,408.258942 
	C527.831970,408.115479 526.847168,407.950928 525.862915,407.784698 
	C491.024475,401.901642 460.628662,411.494629 435.367310,435.655396 
	C391.941193,477.189575 382.551117,545.782715 412.326782,598.018860 
	C435.159302,638.074463 475.092834,658.653809 518.705200,652.678711 
	C525.854553,651.699280 532.954651,650.205627 539.183411,646.744202 
	C539.089111,645.840393 539.127625,645.640808 539.047180,645.521362 
	C535.979492,640.967224 532.740417,636.518372 529.882812,631.836609 
	C528.119873,628.948181 526.327698,628.281616 522.948120,629.188721 
	C493.360229,637.130432 467.720184,629.802979 445.266876,608.230591 
M622.294739,590.809753 
	C663.645813,515.501099 620.877319,437.717712 560.069946,411.072845 
	C556.594055,415.925629 554.203735,421.438629 551.189148,426.586823 
	C549.416565,429.613983 549.673889,431.556366 552.679199,433.611969 
	C557.767578,437.092377 562.576843,440.997314 566.817627,445.495758 
	C596.255798,476.722748 609.001465,513.595398 603.210999,556.267639 
	C599.852661,581.016785 589.285583,602.356628 570.027832,618.845825 
	C566.043152,622.257629 561.762390,625.323608 557.553650,628.599182 
	C559.893555,632.969849 563.092163,636.163513 565.903809,639.636902 
	C570.256592,645.014099 570.330627,645.043945 576.172058,640.945068 
	C594.985413,627.744141 610.568848,611.543579 622.294739,590.809753 
M443.688568,512.204956 
	C440.459778,526.374023 439.960968,540.634644 443.416412,554.770325 
	C448.816620,576.861572 460.115814,594.639771 481.829315,604.041809 
	C492.536896,608.678284 503.610718,609.035217 515.456787,605.959717 
	C503.994476,581.664490 497.892609,556.696350 497.622192,530.317688 
	C497.354431,504.203003 501.435059,478.868195 511.290649,453.861359 
	C499.588501,454.853943 489.306396,456.435150 480.014038,461.862152 
	C460.755402,473.109619 449.847321,490.451752 443.688568,512.204956 
M568.552551,583.060730 
	C578.208374,566.346313 581.538757,548.305847 579.806335,529.215210 
	C577.171204,500.177002 565.212219,475.871063 542.960571,456.818481 
	C541.735901,455.769867 540.586121,454.412994 538.669006,454.668213 
	C537.153076,455.673279 536.762451,457.356171 536.056641,458.841888 
	C524.399902,483.380524 521.174622,509.420746 522.200500,536.237061 
	C523.123901,560.372253 530.472107,582.617615 541.772766,603.741699 
	C543.298645,606.593994 544.885254,607.083618 547.672913,605.219971 
	C556.137878,599.561096 562.915649,592.364197 568.552551,583.060730 
M398.191528,674.294495 
	C420.317352,690.616577 444.516968,702.679565 471.700226,710.828613 
	C471.201385,698.307190 472.456024,686.982300 476.767120,675.523499 
	C455.421600,670.339478 436.842224,660.660278 420.261780,646.369507 
	C412.265411,656.489136 400.968689,661.333801 390.038849,667.854797 
	C392.992126,670.200134 395.304504,672.036438 398.191528,674.294495 
M667.954224,435.454865 
	C679.044312,424.238068 688.830444,412.053253 696.882446,397.856140 
	C695.135986,397.461334 694.355225,397.224243 693.556946,397.113403 
	C679.875549,395.213837 666.324341,396.605988 652.857361,398.994476 
	C642.168335,400.890259 631.688660,403.588135 622.533936,409.819336 
	C618.126953,412.819000 616.873291,420.809204 620.358887,424.600372 
	C627.475586,432.340973 634.026672,440.498688 639.692505,449.359161 
	C640.674438,450.894623 641.856323,451.456879 643.833801,451.344727 
	C647.981201,451.109467 651.575256,449.881744 654.824951,447.275940 
	C659.246704,443.730347 663.527710,440.044159 667.954224,435.454865 
M320.677673,553.880188 
	C323.949493,572.069458 329.134735,589.563416 338.973419,606.021423 
	C350.939301,595.043701 362.289124,584.495300 377.391266,579.260193 
	C375.880249,572.383850 373.919800,565.962708 373.194489,559.404968 
	C372.565155,553.715027 370.630524,551.462891 364.625641,550.541687 
	C349.642578,548.243103 337.126434,540.019470 324.757874,531.773865 
	C323.025208,530.618774 321.569305,528.841614 318.565735,528.824890 
	C318.832794,537.010010 319.312378,545.039001 320.677673,553.880188 
M387.168671,460.631989 
	C389.252441,456.838776 391.276550,453.011017 393.444733,449.266693 
	C394.557556,447.344910 394.817963,445.837708 393.180786,443.910522 
	C383.888062,432.971680 377.931122,420.164215 372.770721,406.921387 
	C372.141510,405.306732 372.121582,403.290222 370.322113,402.269623 
	C357.215149,413.628143 334.399597,449.248505 332.858582,460.801697 
	C333.405640,461.638306 334.276367,461.630707 335.093781,461.630951 
	C351.068481,461.635986 367.077148,461.045197 382.878113,464.193970 
	C385.422943,464.701080 385.948639,462.828094 387.168671,460.631989 
M512.602295,362.077881 
	C510.438416,366.959167 508.749634,372.000916 507.610260,377.216156 
	C507.098145,379.560364 507.151581,381.568665 510.428864,381.697571 
	C522.072876,382.155609 533.639771,383.041748 544.227966,389.460876 
	C548.127869,382.621033 554.481567,377.645020 554.531372,369.444855 
	C554.621521,354.603699 553.098572,339.918701 549.789001,325.432465 
	C549.478821,324.074677 549.145935,322.382202 547.559937,322.629822 
	C542.999451,323.341949 537.918701,321.916962 534.323059,326.620392 
	C526.005615,337.500214 518.515137,348.847900 512.602295,362.077881 
M485.506042,333.159698 
	C465.787170,338.761810 446.908173,346.353882 428.316925,356.785461 
	C441.720062,367.114990 454.448669,376.977722 467.259186,386.732910 
	C468.926941,388.002899 481.199524,385.067261 482.229126,383.340240 
	C482.628296,382.670685 482.713165,381.759796 482.768341,380.947113 
	C483.918457,364.014465 491.039124,349.217010 499.212952,334.788300 
	C500.135071,333.160583 501.555084,331.708984 501.640228,329.068634 
	C496.231628,330.439056 491.263367,331.697876 485.506042,333.159698 
M516.738770,720.697632 
	C530.139771,721.736755 530.142334,721.737549 534.091858,708.596863 
	C534.474182,707.324829 534.827515,706.042603 535.146790,704.753357 
	C537.360229,695.816833 537.446045,687.004028 533.799683,678.344177 
	C533.014771,676.480042 532.229004,674.973389 529.882874,675.498535 
	C519.599243,677.800537 509.178284,678.538391 498.667053,678.319519 
	C496.982666,678.284424 495.841187,679.002136 495.432922,680.775330 
	C492.906097,691.749573 492.275208,702.776733 494.162445,713.932556 
	C494.579407,716.397339 496.009888,717.260437 498.154205,717.622498 
	C504.054871,718.618652 509.952942,719.629822 516.738770,720.697632 
M322.473907,490.843842 
	C320.652222,495.568207 322.028778,499.052979 326.248871,501.840668 
	C329.152710,503.758820 331.641388,506.292908 334.429718,508.400757 
	C343.767853,515.459900 353.582733,521.676025 364.719971,525.606445 
	C368.575195,526.966980 371.050323,527.059998 371.095825,521.823914 
	C371.130280,517.855469 371.901367,513.892761 372.355865,509.928772 
	C373.320709,501.512817 375.691193,493.358093 377.372284,484.872070 
	C375.850250,484.341675 374.647583,483.712036 373.377319,483.512146 
	C358.966919,481.244690 344.502045,481.796143 330.008392,482.533783 
	C324.820129,482.797852 323.105713,485.592712 322.473907,490.843842 
M432.988342,390.529663 
	C425.658661,384.534515 418.334991,378.531921 410.991455,372.553772 
	C410.095123,371.824097 409.178162,370.920135 408.122589,370.622681 
	C404.810028,369.689331 390.862579,381.683655 391.508728,385.037140 
	C394.190765,398.956696 398.170685,412.443176 405.247467,424.872833 
	C407.243317,428.378265 409.018677,427.698486 411.298035,425.228699 
	C418.646423,417.266296 426.739166,410.155396 435.704620,404.034698 
	C437.966370,402.490631 440.679321,401.474945 442.723572,398.803619 
	C439.534454,396.092926 436.533020,393.541748 432.988342,390.529663 
M395.718201,617.731689 
	C391.333191,611.132996 387.765869,604.055237 383.927429,596.263184 
	C378.205994,603.429932 372.443237,609.342651 366.102905,614.696045 
	C362.427307,617.799438 358.997498,621.193848 355.456390,624.456482 
	C352.923889,626.789856 352.798737,629.150574 355.094208,631.810486 
	C359.216644,636.587219 363.245697,641.445862 367.253662,646.319641 
	C368.970001,648.406738 370.770111,648.801758 373.361115,647.767334 
	C378.621338,645.667419 383.727600,643.276428 388.684601,640.562988 
	C394.192535,637.547913 399.330261,634.033691 403.660400,629.160767 
	C401.031006,625.395508 398.567749,621.868225 395.718201,617.731689 
M603.712769,718.260803 
	C606.120789,717.536194 608.888245,717.788330 611.360107,715.687012 
	C601.318665,708.044189 591.478577,700.910034 582.334534,692.885132 
	C573.307129,684.962524 565.929321,675.308472 556.198059,668.010071 
	C559.831116,676.711060 561.428040,685.674316 561.077454,694.919312 
	C560.725342,704.205688 558.301331,713.176086 555.527405,722.709473 
	C572.021606,723.064880 587.467529,720.838684 603.712769,718.260803 
M716.621216,533.225891 
	C705.397888,524.065063 692.219666,518.540955 679.059631,512.962402 
	C675.291443,511.365051 671.398621,511.082550 667.383301,510.901306 
	C663.013367,510.704041 661.822205,512.621521 662.406860,516.612671 
	C663.642578,525.047180 663.365601,533.486389 662.464539,541.951172 
	C662.179016,544.633667 661.374939,547.415100 662.229858,550.572876 
	C664.390259,550.037720 666.320557,549.639099 668.203369,549.080444 
	C682.850159,544.734741 697.495239,540.382446 712.118286,535.957764 
	C713.772278,535.457275 715.795044,535.565491 716.621216,533.225891 
M622.680786,632.162720 
	C619.272644,635.869080 615.864502,639.575439 612.072205,643.699524 
	C627.299805,650.897339 642.188416,656.087219 657.375366,662.585144 
	C655.667053,653.203430 653.422791,645.222229 650.392944,637.476807 
	C648.090820,631.591919 645.608887,625.760071 641.620422,620.761963 
	C637.927246,616.133728 635.535889,616.204407 631.927124,620.780640 
	C629.046814,624.433167 626.091431,628.026367 622.680786,632.162720 
M569.969971,331.751709 
	C571.178955,338.372437 572.387878,344.993195 573.734741,352.368958 
	C584.822327,341.955719 595.524536,332.189850 608.583496,323.791168 
	C597.494934,322.723907 587.453186,322.126984 577.375977,321.969513 
	C567.813171,321.820038 567.814087,321.760956 569.969971,331.751709 
M514.680786,746.816650 
	C512.364014,742.588562 508.191559,745.026978 504.404999,743.428894 
	C505.467712,747.294739 507.460419,749.299072 510.379486,750.220093 
	C512.677063,750.944946 513.365479,748.766602 514.680786,746.816650 
M342.403351,657.605896 
	C343.660522,653.915649 340.672668,652.818604 338.308899,650.537048 
	C337.172638,653.489258 334.927551,655.385986 335.273499,658.412415 
	C337.735382,659.201904 339.750702,658.396851 342.403351,657.605896 
z"/>
<path fill="#e6b325" opacity="1.000000" stroke="none" 
	d="
M965.465332,531.439148 
	C961.310669,535.526428 956.788208,536.405762 951.893372,534.139343 
	C946.795593,531.778931 944.770447,527.364746 944.716797,521.951721 
	C944.505676,500.610992 942.911865,479.388672 939.943604,458.242523 
	C934.401489,418.759460 923.989807,380.635986 908.263916,344.014465 
	C879.001770,275.870605 835.687195,218.470383 776.494568,173.486130 
	C725.023071,134.369629 667.316040,109.391388 603.594666,98.252075 
	C572.889282,92.884369 541.932434,91.530396 510.962067,93.556335 
	C443.412750,97.975128 380.723358,118.356834 322.678528,153.113281 
	C297.726410,168.054260 274.552216,185.397888 252.916855,204.820328 
	C248.802338,208.513992 244.326981,211.700439 239.035919,213.531067 
	C235.142090,214.878265 231.412491,214.655548 228.333893,211.649338 
	C225.225128,208.613632 225.068115,204.850281 226.382675,200.977707 
	C228.313095,195.290909 232.076675,190.824768 236.424332,186.872726 
	C259.807007,165.617920 285.101532,146.930313 312.309113,130.863647 
	C346.778412,110.508759 383.221008,94.717079 421.844238,84.096016 
	C449.206177,76.571709 477.027618,71.758484 505.357819,69.588821 
	C570.459656,64.602982 633.243958,74.448669 693.774719,98.651360 
	C739.076721,116.764915 779.905823,142.225967 816.344238,174.692017 
	C875.135132,227.073868 916.562683,290.994995 942.461487,365.125153 
	C953.862366,397.758057 961.342651,431.329010 965.457703,465.676422 
	C967.620117,483.725677 968.589905,501.825775 969.179199,519.967834 
	C969.313782,524.113708 968.408691,527.900085 965.465332,531.439148 
z"/>
<path fill="#e6b325" opacity="1.000000" stroke="none" 
	d="
M145.436188,700.610168 
	C170.742950,752.989136 204.207245,798.915100 246.897491,837.953186 
	C289.777924,877.165161 338.392792,906.677856 394.100250,924.010071 
	C396.639557,924.800110 399.221649,925.588745 401.588318,926.769836 
	C406.951965,929.446472 409.408905,934.990112 407.991974,940.582947 
	C406.667145,945.812317 401.886932,949.258850 396.018616,949.299011 
	C393.122742,949.318848 390.446716,948.404297 387.744568,947.568542 
	C326.623718,928.664490 273.264557,896.462830 226.893799,852.689148 
	C158.185471,787.829224 112.875626,709.201782 90.330849,617.501221 
	C81.345184,580.952148 76.893829,543.773926 77.969620,506.133087 
	C80.036674,433.808899 98.537949,366.442444 139.984879,306.285889 
	C150.023849,291.715179 161.237930,278.087830 173.737717,265.541016 
	C174.560791,264.714813 175.384216,263.886810 176.244949,263.100677 
	C182.545471,257.346100 190.063950,256.964417 194.965668,262.137634 
	C199.760773,267.198334 199.281891,274.458252 193.382919,280.413452 
	C146.042206,328.205292 118.964409,386.198120 107.590256,451.890137 
	C100.841255,490.869354 100.750206,530.029358 106.035301,569.273376 
	C112.200058,615.049438 125.559601,658.593689 145.436188,700.610168 
z"/>
<path fill="#e6b325" opacity="1.000000" stroke="none" 
	d="
M916.000366,688.076599 
	C924.935181,665.717102 931.834534,643.140320 936.672546,619.937927 
	C937.599487,615.492188 939.072937,611.229797 941.957214,607.656921 
	C947.919312,600.271179 956.561096,601.678223 959.872192,610.531372 
	C961.491455,614.860962 961.588318,619.295959 960.680420,623.812561 
	C950.151978,676.190491 930.155762,724.758606 901.424316,769.701843 
	C854.920288,842.445862 792.687256,897.464111 714.339783,933.889648 
	C674.782104,952.280945 633.222778,963.880188 589.745422,968.400391 
	C546.086914,972.939331 502.952209,970.342346 460.412292,959.266235 
	C457.200928,958.430054 453.943878,957.536194 450.950867,956.146301 
	C445.713654,953.714294 443.023956,948.049805 444.247162,942.969299 
	C445.627441,937.236084 450.170807,933.614685 456.281677,933.750793 
	C458.743622,933.805481 461.249481,934.308777 463.636108,934.967590 
	C499.168365,944.775085 535.437073,947.813660 572.059082,945.538513 
	C628.314331,942.043579 680.992371,925.794189 730.228516,898.546082 
	C794.918213,862.745544 846.162964,812.779541 884.987244,750.009460 
	C897.098877,730.427734 907.292664,709.823120 916.000366,688.076599 
z"/>
<path fill="#e6b325" opacity="1.000000" stroke="none" 
	d="
M508.365845,811.441528 
	C515.317505,815.425781 517.443176,821.762634 518.292603,828.782898 
	C520.331604,845.635071 522.697998,862.463745 522.010620,879.518799 
	C521.950867,881.001648 522.174805,882.495911 522.323547,884.899109 
	C528.699341,877.002197 531.224915,868.485901 532.717529,859.464905 
	C534.806458,846.839417 535.402466,833.977905 538.734070,821.550049 
	C539.819336,817.501709 541.175171,813.561035 543.722046,810.181946 
	C547.096497,805.704895 551.545471,803.422668 557.204712,804.597839 
	C562.855347,805.771240 566.135315,809.559021 567.337402,815.072021 
	C569.366211,824.376770 567.586304,833.666870 566.737061,842.906128 
	C565.747681,853.670044 564.096252,864.372437 564.232727,875.223267 
	C564.266052,877.872070 564.448425,880.469666 566.216003,883.556519 
	C570.631470,876.846863 571.872375,869.667969 573.736084,862.722717 
	C576.639038,851.904358 576.587463,840.640747 578.738220,829.716309 
	C579.989136,823.362732 582.367798,817.585327 588.282471,813.983337 
	C597.114502,808.604614 608.273438,812.901184 611.156250,822.868164 
	C611.944641,825.593933 612.315308,828.396240 612.273865,831.258179 
	C612.093079,843.743103 612.909973,856.245361 611.493408,868.709839 
	C611.077026,872.373535 611.635376,876.026917 612.170471,879.657227 
	C612.827759,884.116394 615.165222,885.657715 619.451355,884.418823 
	C620.245361,884.189331 620.987305,883.780151 621.754028,883.455811 
	C629.078552,880.356812 635.146240,881.963318 638.111816,887.786560 
	C641.148743,893.749756 638.820190,901.297485 632.735107,905.214661 
	C619.893677,913.481201 601.056030,909.465698 592.322144,896.588989 
	C591.583801,895.500488 590.924011,894.358704 589.794556,892.546875 
	C584.577332,901.189514 578.473938,908.515015 568.286804,909.926331 
	C557.583496,911.409180 550.204956,905.842285 544.775940,896.979858 
	C542.152649,897.898193 541.073547,900.051086 539.691223,901.804932 
	C533.885681,909.170410 526.712524,913.367493 517.082947,911.047424 
	C507.493286,908.736938 502.974304,901.690063 500.895477,892.633972 
	C498.854797,883.743835 499.788300,874.708191 499.743317,865.737610 
	C499.722260,861.545715 498.644257,860.177795 494.234039,860.909058 
	C488.636841,861.837036 482.904663,861.306580 477.329559,860.196533 
	C469.544647,858.646606 464.160919,854.149353 461.517120,846.533691 
	C459.759003,841.469299 458.903137,836.202698 458.172913,830.937988 
	C457.737213,827.796753 456.298981,826.308594 453.233307,825.752014 
	C450.638428,825.280884 448.066223,824.465027 445.615479,823.475952 
	C442.608704,822.262390 440.808044,819.928406 440.734558,816.562927 
	C440.660156,813.155334 442.628052,810.991699 445.410828,809.454956 
	C446.421722,808.896790 447.527496,808.460205 448.639984,808.144531 
	C456.771301,805.837646 456.751129,805.851929 456.695282,797.244141 
	C456.652130,790.590088 456.267700,783.908081 457.719818,777.338257 
	C458.183075,775.242188 458.712219,773.116394 459.571503,771.162720 
	C460.791290,768.389404 462.907806,766.442566 466.178436,766.840027 
	C469.476990,767.240906 471.019226,769.569885 471.345551,772.681396 
	C472.351227,782.271484 473.576904,791.852783 474.116028,801.471191 
	C474.376038,806.109863 476.319122,807.026550 480.355988,806.738892 
	C489.914581,806.057678 499.375885,806.320618 508.365845,811.441528 
M476.398773,829.126038 
	C475.472382,832.355225 476.893341,835.293823 477.622620,838.291870 
	C478.147949,840.451599 479.739410,841.514771 482.008362,841.620056 
	C486.158234,841.812500 490.274902,841.720764 494.330841,840.685852 
	C495.474152,840.394104 496.613495,840.130676 497.138733,838.918640 
	C498.945068,834.750488 495.889374,828.990723 491.330353,828.538757 
	C486.569611,828.066772 481.757538,828.030762 476.398773,829.126038 
z"/>
<path fill="#e6b325" opacity="1.000000" stroke="none" 
	d="
M294.945709,688.926453 
	C302.394989,696.824219 300.523987,706.250183 290.768066,710.512024 
	C282.661560,714.053345 274.789429,718.059631 267.092773,722.358643 
	C259.358978,726.678406 253.458878,732.868469 250.143417,741.360535 
	C248.625031,745.249695 249.897675,747.003601 253.640778,747.706665 
	C255.769394,748.106506 257.910126,748.462036 260.014801,748.965454 
	C266.268738,750.461365 270.127228,754.917542 270.013580,760.413208 
	C269.901398,765.837524 265.236603,770.986206 259.397919,772.130005 
	C247.176086,774.524292 230.734680,766.206543 225.356186,754.962280 
	C223.548080,751.182190 223.347107,747.265625 224.104828,743.248718 
	C224.532913,740.979370 225.112045,738.738525 225.761703,735.873901 
	C209.861038,732.140442 198.913330,724.308716 201.619659,706.044189 
	C200.364578,704.792358 199.296494,705.797546 198.237778,705.986633 
	C186.666946,708.053894 177.994751,701.200928 177.674728,689.434265 
	C177.307251,675.923523 182.615005,664.098328 189.297501,652.807800 
	C192.347595,647.654602 195.955658,642.833374 199.060410,637.709900 
	C200.333038,635.609802 201.140244,633.165039 201.822281,630.780762 
	C204.538345,621.285400 203.626144,620.114197 193.889038,620.107056 
	C183.364578,620.099365 177.536255,614.083191 178.678299,603.749512 
	C179.610153,595.317749 180.909882,586.948975 180.924622,578.420349 
	C180.929352,575.682129 181.964905,572.860901 182.936172,570.227844 
	C184.621964,565.657837 187.702118,562.576660 192.960114,562.692139 
	C198.206238,562.807373 201.163177,566.035522 202.745697,570.612061 
	C204.952530,576.993958 205.508148,583.655579 204.965332,590.334961 
	C204.689957,593.723389 205.516693,595.242859 209.038803,596.259521 
	C220.560883,599.585205 226.641785,607.998474 227.317474,620.306641 
	C228.125076,635.017151 222.916702,647.698669 214.500809,659.370239 
	C212.573044,662.043823 210.843552,664.860352 209.659561,668.319519 
	C218.396332,663.032776 227.135559,657.750122 235.868698,652.457458 
	C239.285461,650.386841 242.560852,648.035706 246.127335,646.270264 
	C251.744232,643.489990 257.226715,644.735046 261.062347,649.206177 
	C264.841614,653.611633 265.128540,659.239624 261.515045,664.432983 
	C258.242523,669.136475 253.418320,672.312622 249.158661,675.996094 
	C240.370193,683.595703 232.299667,691.678284 228.159348,702.840881 
	C227.329773,705.077454 225.093979,707.721741 226.998886,709.793335 
	C228.979401,711.947144 231.739639,709.823669 233.919952,708.949097 
	C245.821045,704.175232 257.792023,699.557983 269.047699,693.302734 
	C272.965485,691.125427 277.121643,689.340332 281.274567,687.632935 
	C285.838623,685.756531 290.385468,685.849731 294.945709,688.926453 
z"/>
<path fill="#e6b325" opacity="1.000000" stroke="none" 
	d="
M912.358765,552.677490 
	C915.308472,554.355530 918.117249,555.261597 921.059143,555.991760 
	C928.821594,557.918274 933.190369,564.016602 931.670898,570.425964 
	C930.000061,577.474121 923.246216,581.524658 915.305176,579.575562 
	C900.238403,575.877197 887.387390,568.731201 879.672913,554.532959 
	C877.946106,551.354858 876.005127,549.865601 872.166565,550.535583 
	C855.128052,553.509644 837.889160,555.269653 820.998108,559.189392 
	C817.573181,559.984131 815.478577,561.444397 813.920166,564.596436 
	C809.295654,573.950623 802.273438,581.610718 795.434570,589.325439 
	C791.175537,594.130005 784.772583,594.722595 780.062134,591.439697 
	C775.314575,588.131104 773.583862,581.980225 775.969360,576.321594 
	C778.075928,571.324707 781.665527,567.286316 785.287781,563.416260 
	C801.322327,546.284973 806.676758,506.112152 791.750549,483.676208 
	C787.369019,477.090302 788.523376,470.261993 793.989075,466.402985 
	C799.531372,462.489899 806.232788,463.614258 811.276733,469.532440 
	C817.396057,476.712555 820.258545,485.437408 822.227783,494.427338 
	C823.111450,498.461334 824.488892,499.714325 828.900208,499.044067 
	C843.707764,496.794006 858.478882,494.439392 873.118713,491.234131 
	C876.263733,490.545502 877.985413,489.155212 879.150391,486.210175 
	C882.904419,476.720001 889.085632,468.931488 896.804932,462.355865 
	C902.972229,457.102356 910.059570,456.886292 914.815796,461.638062 
	C919.718689,466.536407 919.804260,474.306000 913.507507,479.839691 
	C899.299500,492.325867 896.657959,508.851868 896.535095,526.098328 
	C896.453674,537.516357 900.798340,547.268250 912.358765,552.677490 
M870.444885,517.122620 
	C857.348206,519.195618 844.263184,521.346191 831.149963,523.308777 
	C824.648560,524.281860 823.672913,525.506653 824.768372,532.669800 
	C826.395081,533.464050 827.995483,532.714172 829.586914,532.468506 
	C841.549744,530.621826 853.494568,528.653625 865.470886,526.900696 
	C872.211792,525.913940 873.189758,524.456543 870.444885,517.122620 
z"/>
<path fill="#e6b325" opacity="1.000000" stroke="none" 
	d="
M855.010986,351.712280 
	C852.048706,351.280182 849.487061,350.252289 846.531616,351.231323 
	C846.159912,357.326050 845.665222,363.421753 845.442810,369.527374 
	C845.048462,380.351532 840.115662,388.959686 832.555786,396.253601 
	C817.201721,411.067657 792.208923,415.046783 773.054810,405.838562 
	C756.646545,397.950409 747.920471,380.054413 751.039001,360.686829 
	C755.493042,333.024841 773.652466,316.231415 801.496521,314.021545 
	C805.200256,313.727570 808.817871,314.337189 812.367371,315.249908 
	C815.277344,315.998199 816.487183,314.779602 816.573792,312.068787 
	C816.740173,306.855957 815.860229,301.786896 814.105469,296.890686 
	C813.454956,295.075623 811.954590,293.932129 810.176208,293.274689 
	C808.620300,292.699524 807.009644,292.269897 805.416809,291.797485 
	C798.049988,289.612640 793.849426,284.036377 795.098328,278.087372 
	C796.489746,271.459015 803.435791,267.086853 810.844055,268.176361 
	C827.629272,270.644897 838.190674,282.495117 840.203613,301.167725 
	C840.881836,307.459412 841.592773,313.764282 840.431152,320.074127 
	C839.654724,324.291687 840.953308,326.153870 845.609619,326.037354 
	C850.916565,325.904602 856.257874,326.603424 861.387573,328.146729 
	C873.889343,331.907959 882.143494,339.815491 884.815430,352.871643 
	C886.519592,361.198303 887.518188,369.615173 887.317627,378.144897 
	C887.265503,380.361755 886.707886,382.422394 885.749878,384.385834 
	C883.206787,389.598236 878.735779,392.035583 873.140686,391.297363 
	C868.486389,390.683258 864.573486,386.920044 863.800598,381.538330 
	C862.855225,374.956116 862.411133,368.303040 861.691162,361.687042 
	C861.223206,357.386658 860.136169,353.427765 855.010986,351.712280 
M791.450317,385.997528 
	C807.773438,389.040039 821.412292,378.039398 821.659851,361.614075 
	C821.699951,358.955261 821.683228,356.294556 821.634583,353.635803 
	C821.596741,351.570892 821.203979,349.021454 819.333557,348.427368 
	C814.119995,346.771423 810.938171,341.983307 805.773132,340.297424 
	C803.389954,339.519592 801.283325,338.635803 798.613647,339.041260 
	C785.107300,341.092468 775.834045,351.636108 775.201233,365.958649 
	C774.665466,378.084442 778.708496,383.290649 791.450317,385.997528 
z"/>
<path fill="#e6b325" opacity="1.000000" stroke="none" 
	d="
M577.268066,255.161865 
	C576.552063,265.354797 568.185425,270.361664 559.040771,266.231384 
	C548.845886,261.626770 543.104980,252.772308 538.610901,243.150375 
	C533.812073,232.875854 529.856323,222.250595 528.671631,210.819870 
	C528.603699,210.164276 528.490662,209.478455 527.351196,209.138382 
	C525.572205,210.714890 525.732300,213.116394 525.293762,215.258118 
	C522.613403,228.348175 518.906494,241.111954 513.211426,253.238998 
	C511.506775,256.868835 509.442291,260.302612 506.911255,263.418488 
	C502.190552,269.229919 494.522949,270.479645 489.132904,266.388000 
	C483.809601,262.347137 482.865417,255.082825 487.258759,248.949356 
	C495.244263,237.800949 497.884369,224.793625 501.400513,211.459396 
	C494.597260,209.987335 488.318573,209.796539 482.075745,209.393906 
	C479.090240,209.201340 476.081390,209.420273 473.208130,208.264221 
	C467.939148,206.144226 464.568665,201.385498 464.891785,196.396362 
	C465.225311,191.246307 468.898651,187.006668 474.536346,185.628387 
	C481.844208,183.841827 489.121613,185.889343 496.417084,186.040497 
	C497.874603,186.070663 499.320862,186.905411 501.087433,185.998535 
	C500.885651,181.811630 498.855865,178.195465 496.862366,174.651047 
	C491.962830,165.939835 486.842590,157.352966 481.912476,148.658615 
	C480.191650,145.623901 478.437073,142.537704 477.281525,139.268707 
	C475.290771,133.637070 477.600372,127.737556 482.418152,124.947418 
	C487.367645,122.080986 493.339691,122.937988 497.271942,127.698265 
	C499.789734,130.746246 501.601501,134.388245 503.647614,137.813049 
	C509.456848,147.536652 515.369202,157.197388 520.428772,167.354492 
	C522.952759,172.421356 524.280151,177.903320 526.103271,183.215561 
	C529.855713,183.343811 529.751526,180.486908 530.276184,178.449188 
	C533.520691,165.847366 537.121521,153.389801 543.357666,141.854355 
	C546.576477,135.900192 550.839355,130.819473 556.055481,126.577881 
	C562.551575,121.295425 570.359802,121.487778 574.882324,126.840775 
	C579.102905,131.836395 578.061279,138.923676 572.269348,144.620941 
	C564.542236,152.221802 559.624451,161.499741 557.824524,171.890305 
	C558.576538,173.238159 560.059143,173.174423 561.276794,173.556366 
	C566.438843,175.175659 569.511597,178.734390 570.035767,183.988678 
	C570.572083,189.365311 567.725098,193.173996 563.111084,195.724655 
	C562.529846,196.045929 561.911194,196.303787 561.296875,196.559952 
	C551.809448,200.516129 551.609131,200.548630 553.343689,210.834579 
	C554.991028,220.603958 558.563965,229.742569 563.682434,238.253021 
	C565.530090,241.325150 568.096008,243.629745 571.122131,245.505569 
	C574.556519,247.634399 576.750366,250.640762 577.268066,255.161865 
z"/>
<path fill="#e6b325" opacity="1.000000" stroke="none" 
	d="
M706.054077,727.707153 
	C723.237549,727.775391 736.532776,734.523376 745.989197,748.327698 
	C751.594604,756.510315 751.872681,765.029053 746.659973,773.678528 
	C740.846313,783.325317 733.902710,792.017822 725.149109,799.117126 
	C722.530029,801.241333 722.048401,803.339783 722.669800,806.469604 
	C725.310181,819.768311 724.797791,832.520447 716.674927,844.271851 
	C704.549255,861.814087 681.152100,862.291931 668.550415,844.891907 
	C661.471313,835.117310 657.232971,823.775085 651.596558,813.202332 
	C649.656494,809.563232 647.832947,805.861938 645.818359,801.919434 
	C645.131714,802.678894 644.690308,802.972961 644.525635,803.379089 
	C642.758362,807.738464 639.878418,810.962891 634.910339,810.764160 
	C629.650024,810.553711 626.458923,807.033997 624.729309,802.382629 
	C621.991333,795.019714 621.324768,787.430054 623.784058,779.857666 
	C627.469360,768.510315 640.087463,763.601074 650.562256,769.288940 
	C655.531799,771.987427 659.237366,775.923767 662.069458,780.793579 
	C669.784363,794.059387 676.082153,808.049683 683.096619,821.673035 
	C684.466797,824.334290 685.848999,827.021606 687.545593,829.475647 
	C690.774841,834.146484 694.088074,833.938538 697.231567,829.119263 
	C700.715759,823.777649 700.357117,817.900696 698.963440,812.220276 
	C695.495728,798.086670 688.919373,785.082520 683.506104,771.661011 
	C682.075256,768.113281 680.366089,764.685974 679.326111,760.979248 
	C674.238953,742.847290 682.435425,730.372681 701.090820,727.943542 
	C702.572266,727.750610 704.083008,727.782532 706.054077,727.707153 
M711.014587,774.146729 
	C711.483154,775.149536 711.472778,776.512817 713.420288,776.834961 
	C717.361511,773.126831 720.818726,768.718201 723.854736,763.945312 
	C725.009277,762.130188 724.703674,760.622253 723.358643,758.971008 
	C719.053894,753.686462 709.789124,750.958801 702.652283,753.277039 
	C704.403992,760.391235 708.555420,766.580750 711.014587,774.146729 
z"/>
<path fill="#e6b325" opacity="1.000000" stroke="none" 
	d="
M221.598404,541.400146 
	C219.448776,539.072388 217.526016,537.013489 215.323654,534.655212 
	C213.044922,536.926819 212.399109,539.705688 211.323273,542.199158 
	C210.126389,544.973267 208.840546,547.680481 206.690201,549.836121 
	C202.950653,553.584778 197.128036,554.606689 192.897110,552.359619 
	C188.523422,550.036743 186.096603,544.685181 187.106766,539.063293 
	C188.360931,532.083435 191.459473,525.781738 194.950027,519.716309 
	C196.638626,516.782043 196.492432,514.848206 194.031204,512.342102 
	C188.235855,506.441132 183.139328,499.833099 175.553986,494.528381 
	C175.113022,501.262817 174.730331,507.307983 174.317123,513.351074 
	C174.018372,517.719971 173.157440,521.956543 170.708633,525.674805 
	C168.244186,529.416870 164.772095,531.649719 160.196411,531.109375 
	C155.489624,530.553589 152.370575,527.768616 150.801468,523.234863 
	C149.511597,519.507935 149.419907,515.673401 149.937622,511.872894 
	C151.978012,496.894958 150.206146,482.373718 145.348541,468.109741 
	C141.634811,457.204681 147.416809,448.512909 158.894485,448.920593 
	C174.992477,449.492401 189.273926,443.963165 203.415619,437.533051 
	C210.399628,434.357452 216.670853,435.553436 220.154800,441.161987 
	C223.684021,446.843323 222.046738,453.875641 215.880753,458.185120 
	C208.537201,463.317596 199.806396,465.309998 191.599121,468.485443 
	C189.811523,469.177094 187.636963,469.095032 185.993973,471.226227 
	C196.153091,478.655457 204.706329,487.690643 213.044250,496.952026 
	C213.682404,497.660797 214.597672,498.301086 215.502487,498.560760 
	C224.536072,501.153168 235.761963,495.400238 239.236694,486.473999 
	C242.044342,479.261383 247.847733,475.641266 253.798019,477.390594 
	C260.490631,479.358154 264.051300,485.593445 262.348572,493.225098 
	C259.599701,505.545532 252.685532,514.600769 240.742569,519.423340 
	C239.540436,519.908752 238.341080,520.400940 236.405151,521.189514 
	C241.923935,527.314819 246.669846,533.429749 252.437088,538.663391 
	C255.185226,541.157410 257.527863,543.905212 258.338409,547.701965 
	C260.188324,556.367188 252.487717,563.681763 243.921768,561.387024 
	C240.934845,560.586792 238.486588,558.932129 236.236023,556.903931 
	C231.026794,552.209290 226.408844,546.955444 221.598404,541.400146 
z"/>
<path fill="#e6b325" opacity="1.000000" stroke="none" 
	d="
M651.955872,294.083221 
	C641.396545,292.244843 637.132141,285.816650 639.130920,275.302521 
	C641.101501,264.936584 645.329041,255.289612 648.765320,245.394180 
	C652.205322,235.488022 655.827576,225.645294 659.294983,215.748489 
	C661.489502,209.484756 663.546570,203.172897 665.660950,196.895737 
	C663.790039,195.401184 662.312073,196.627838 660.837036,197.041763 
	C653.147095,199.199921 645.530212,201.652145 637.773560,203.529694 
	C630.234680,205.354538 623.518677,201.526886 621.925964,195.072983 
	C620.258789,188.317383 624.062683,182.216309 631.766907,180.171432 
	C644.494995,176.793121 656.938965,172.578232 669.379517,168.300491 
	C682.914001,163.646576 694.629395,173.348465 692.677673,187.542572 
	C690.251404,205.187210 682.566833,221.280502 677.436340,238.129028 
	C676.613098,240.832352 675.602722,243.478668 674.677979,246.153839 
	C675.734314,247.079437 676.271240,246.028320 676.789307,245.637329 
	C693.471863,233.047562 712.773926,225.554962 731.720093,217.374741 
	C733.397156,216.650620 735.147400,216.077118 736.897095,215.543320 
	C750.657166,211.345657 758.673096,216.043060 760.817505,230.205032 
	C762.183472,239.225952 763.330627,248.375931 761.462708,257.524719 
	C760.041931,264.483246 754.678711,269.296875 748.909729,268.849579 
	C742.675171,268.366211 738.033997,262.851654 737.708679,255.603348 
	C737.510559,251.188248 738.416016,246.711212 736.950195,241.223343 
	C726.574524,247.028885 715.530334,250.191986 705.617004,256.037109 
	C691.910217,264.118927 679.561462,273.921234 668.000061,284.797180 
	C663.502136,289.028381 658.837585,293.113403 651.955872,294.083221 
z"/>
<path fill="#e6b325" opacity="1.000000" stroke="none" 
	d="
M220.432678,334.075104 
	C229.221619,335.579590 235.100967,341.059204 240.971497,346.528229 
	C244.870453,350.160553 248.554398,354.039368 252.610413,357.482971 
	C256.724854,360.976166 258.787262,360.436920 261.947540,355.966614 
	C266.740051,349.187408 267.595978,341.678192 266.528168,333.508057 
	C259.391174,339.779236 254.181839,340.885834 249.135086,337.369629 
	C243.709610,333.589478 242.401901,326.426361 245.765610,318.361938 
	C249.097702,310.373260 254.908646,305.006989 263.605591,304.174805 
	C272.631165,303.311249 279.724945,307.616150 284.945007,314.814941 
	C291.990723,324.531464 292.103424,335.721252 290.993927,346.961914 
	C290.072174,356.300659 286.224396,364.656708 280.561432,372.046417 
	C269.224274,386.840454 252.374863,388.751068 237.629135,376.929474 
	C232.990219,373.210480 228.757172,368.985291 223.122833,363.893219 
	C224.488907,370.903198 223.074448,376.754089 226.976639,382.068939 
	C230.831787,387.319702 234.756287,392.453888 239.290695,397.135773 
	C241.016327,398.917450 242.731033,400.815674 243.970734,402.940796 
	C246.861374,407.896027 245.916626,413.943237 241.991333,417.621185 
	C238.153351,421.217285 232.474060,421.816376 227.645020,418.834473 
	C223.359085,416.187897 219.873795,412.564941 216.633163,408.743042 
	C211.561447,402.761719 206.983109,396.419342 202.885971,389.724945 
	C201.873611,388.070831 201.234818,386.060150 198.873932,384.915436 
	C197.546066,391.415741 197.202438,397.800140 197.215057,404.232697 
	C197.226013,409.827484 195.178131,414.409546 189.928680,416.892487 
	C181.996628,420.644287 173.571655,414.989960 172.913193,405.306580 
	C172.609924,400.847015 173.007080,396.321777 173.324432,391.843170 
	C173.641556,387.368134 174.954926,382.859406 174.610870,378.460938 
	C173.497665,364.229614 182.917023,357.742126 193.345779,351.919312 
	C194.980270,351.006683 196.473511,350.457642 197.261047,348.508423 
	C202.197144,336.291107 207.110504,333.208221 220.432678,334.075104 
z"/>
<path fill="#e6b325" opacity="1.000000" stroke="none" 
	d="
M765.249268,716.698975 
	C753.604736,699.757812 749.422302,681.385315 752.063110,661.408142 
	C753.272400,652.260193 755.876282,643.514404 759.784241,635.166687 
	C761.838562,630.778564 765.000977,627.450378 769.649414,625.765381 
	C776.572083,623.255859 782.457886,626.986938 783.267395,634.368835 
	C783.769714,638.949951 782.867798,643.245422 781.070129,647.500610 
	C779.033569,652.321167 776.941345,657.214417 777.177307,662.640503 
	C779.780640,663.161194 780.993530,661.450134 782.526001,660.612549 
	C792.487610,655.168213 802.582397,654.483948 812.480164,660.365662 
	C822.237183,666.163635 826.393921,675.242432 826.204102,686.421753 
	C826.057983,695.028992 824.286743,703.223267 820.284973,710.948364 
	C807.905884,734.845886 777.410645,732.055237 765.249268,716.698975 
M801.033203,692.472656 
	C801.225464,691.498535 801.596863,690.520630 801.576294,689.551025 
	C801.515991,686.706482 802.919922,683.111633 799.281799,681.636475 
	C795.551697,680.123962 793.011108,682.681213 790.937317,685.418213 
	C788.736877,688.322388 786.612976,691.292236 784.599915,694.329041 
	C781.644592,698.787354 783.268433,702.482788 788.573059,703.625793 
	C795.005127,705.011780 798.715759,701.889221 801.033203,692.472656 
z"/>
<path fill="#e6b325" opacity="1.000000" stroke="none" 
	d="
M826.454834,609.557617 
	C835.538879,597.846741 847.134888,592.596130 861.337341,595.856628 
	C884.389404,601.148682 890.922852,612.915710 888.248962,637.337952 
	C885.658447,660.999390 872.283936,677.579163 855.992065,692.844360 
	C852.669861,695.957153 849.059631,696.967896 844.598267,694.857422 
	C840.232605,692.792175 840.753357,689.126831 840.707153,685.491577 
	C840.639343,680.150635 842.733521,675.425293 844.954651,670.754883 
	C846.227234,668.079102 847.674438,665.486450 849.029358,662.882568 
	C846.915710,660.921265 844.385376,661.365234 842.218750,660.671509 
	C823.255676,654.599731 814.442688,634.773865 822.707642,616.447083 
	C823.730347,614.179321 825.060974,612.050598 826.454834,609.557617 
M844.615723,627.351440 
	C843.511658,633.005676 845.222107,637.583740 850.156311,640.613647 
	C855.197815,643.709290 858.947083,641.594299 858.927856,635.783936 
	C858.917480,632.635376 858.948181,629.438049 858.422852,626.354370 
	C857.964722,623.665283 857.541382,620.199341 854.173157,619.684021 
	C850.837708,619.173645 848.180786,621.204895 846.313477,624.001282 
	C845.764526,624.823486 845.384766,625.758606 844.615723,627.351440 
z"/>
<path fill="#e6b325" opacity="1.000000" stroke="none" 
	d="
M381.692810,835.089233 
	C374.130310,835.496460 369.558136,830.237244 363.989990,826.911316 
	C360.604431,829.835388 358.097229,833.440552 354.203186,835.542725 
	C339.601166,843.425598 315.726044,838.794067 305.159393,825.926208 
	C297.655426,816.787964 297.684845,805.362793 305.160461,795.589966 
	C306.555573,793.766174 308.605042,792.431519 309.649292,789.357239 
	C305.290710,786.681702 300.822083,783.918579 296.333008,781.189087 
	C292.490936,778.853149 288.466461,776.755249 286.142883,772.608154 
	C283.842743,768.502869 283.427246,764.383240 286.211304,760.365479 
	C288.926300,756.447327 292.824341,754.850952 297.488068,755.436829 
	C299.440033,755.682129 301.503082,756.153870 303.206604,757.086914 
	C314.605255,763.329895 325.909821,769.790588 336.380951,777.492737 
	C345.903442,784.497070 345.399872,794.223450 335.660522,800.799988 
	C331.797363,803.408569 328.091614,806.177124 325.396698,810.016235 
	C328.570068,814.123169 337.027649,816.371826 341.211151,814.381348 
	C343.351349,813.363037 343.608093,811.444031 343.887054,809.397278 
	C344.550049,804.532715 345.632538,799.773804 350.187866,796.912903 
	C355.963318,793.285767 361.815918,793.961243 367.047546,797.789124 
	C374.163788,802.996033 381.096619,808.485107 387.807800,814.205566 
	C395.521729,820.780945 393.212280,833.191833 381.692810,835.089233 
z"/>
<path fill="#e6b325" opacity="1.000000" stroke="none" 
	d="
M287.363159,252.343567 
	C288.600677,241.320023 292.090088,231.449371 297.712769,222.467148 
	C305.429504,210.139648 316.051514,205.817368 330.158813,209.137650 
	C333.584290,209.943893 334.127777,208.124908 335.077759,205.894409 
	C339.498291,195.515320 346.596497,188.344955 358.413422,187.440979 
	C361.854034,187.177795 365.379944,187.756058 368.844391,188.147110 
	C373.183716,188.636948 377.173798,187.758820 380.676666,185.231003 
	C384.542084,182.441544 386.180328,178.839310 384.624512,173.937103 
	C382.225983,166.379501 384.586182,160.533951 390.695984,158.081238 
	C396.959290,155.566910 403.943359,158.646408 407.259094,165.384445 
	C412.586761,176.211044 409.598694,191.345428 399.899628,200.795517 
	C390.695740,209.763184 379.628601,213.899216 366.683685,212.430023 
	C359.215912,211.582458 359.073029,211.685822 356.350952,218.516754 
	C355.427460,220.834167 354.564911,223.203644 353.364471,225.378189 
	C347.641998,235.744476 337.172180,239.501846 326.578949,234.304504 
	C321.638092,231.880402 319.121521,233.308350 317.111023,237.530746 
	C314.239990,243.560516 311.695221,249.715805 311.352264,256.518341 
	C310.978577,263.931183 306.948792,268.613312 300.455780,269.128723 
	C294.090729,269.633942 288.743958,264.936829 287.596436,257.723877 
	C287.337311,256.095032 287.392120,254.416245 287.363159,252.343567 
z"/>
<path fill="#e6b325" opacity="1.000000" stroke="none" 
	d="
M364.879578,246.399689 
	C367.942657,246.409805 368.174438,244.038376 368.982819,242.347198 
	C376.147278,227.359421 384.346344,222.805679 400.832275,224.692307 
	C402.476471,224.880493 404.161377,224.927307 405.811127,224.810425 
	C409.863953,224.523300 411.371521,222.184357 410.536285,218.340820 
	C410.185608,216.727097 409.452271,215.199707 408.946442,213.615967 
	C407.035431,207.632767 409.176575,201.656097 414.176941,198.952118 
	C419.149109,196.263412 425.867767,197.516876 429.506683,202.260040 
	C437.809204,213.082077 438.681885,235.341248 422.166534,244.743149 
	C414.758881,248.960190 406.796509,250.361160 398.557068,248.975082 
	C394.093506,248.224182 392.087311,249.844986 390.646820,253.610077 
	C389.699860,256.085297 388.513123,258.505341 387.145752,260.776733 
	C381.736542,269.762268 373.663940,272.977631 362.205963,270.870697 
	C348.259186,268.306183 339.380035,276.768738 340.863159,291.158844 
	C341.135834,293.804596 341.343658,296.475769 341.304932,299.131165 
	C341.214386,305.335388 337.613464,309.709198 331.820374,310.916138 
	C326.419220,312.041412 320.814972,309.153198 318.614471,303.462677 
	C315.672119,295.853943 315.348999,287.889435 316.734222,279.879303 
	C319.799469,262.154480 334.382721,247.776352 351.641602,245.266815 
	C356.047211,244.626205 360.245056,245.679779 364.879578,246.399689 
z"/>
<path fill="#e6b325" opacity="1.000000" stroke="none" 
	d="
M345.824158,767.192261 
	C335.252960,759.074890 324.911255,751.240479 314.675018,743.270630 
	C310.563751,740.069763 307.746307,735.967468 308.332336,730.443909 
	C309.137451,722.855225 316.506317,718.259460 323.686127,720.825989 
	C325.539795,721.488525 327.383850,722.430481 328.944489,723.621399 
	C345.075012,735.929993 361.697174,747.619507 376.715942,761.336182 
	C381.522522,765.726013 386.761810,769.516296 392.267517,772.994812 
	C399.578186,777.613647 401.691040,784.117615 398.153564,790.236084 
	C394.523407,796.514893 387.518341,797.941223 379.795044,793.875183 
	C369.364471,788.383911 361.156891,779.984375 352.170990,772.606018 
	C350.113800,770.916870 348.119324,769.151245 345.824158,767.192261 
z"/>
</svg>